<svg id="S2.F1.pic1" class="ltx_picture" height="255.46" overflow="visible" version="1.1" viewbox="0 0 386.55 255.46" width="386.55"><g transform="translate(0,255.46) matrix(1 0 0 -1 0 0) translate(171.88,0) translate(0,65.71)"><g style="--ltx-stroke-color:#000000;--ltx-fill-color:#5695C5;" fill="#5695C5" stroke="#000000" stroke-width="1.42264pt"><path d="M -38.92 -20.76 h 77.83 v 41.51 h -77.83 Z" /></g><g style="--ltx-stroke-color:#000000;--ltx-fill-color:#000000;" fill="#000000" stroke="#000000" stroke-width="1.42264pt" transform="matrix(1.0 0.0 0.0 1.0 -34.3 -8.26)"><g class="ltx_tikzmatrix" transform="matrix(1 0 0 -1 0 21.91)"><g class="ltx_tikzmatrix_row" transform="matrix(1 0 0 1 0 9.61)"><g class="ltx_tikzmatrix_col ltx_nopad_r" transform="matrix(1 0 0 -1 6.53 0)"><foreignobject style="--ltx-fo-width:4.01em;--ltx-fo-height:0.69em;--ltx-fo-depth:0em;font-size:10pt;" height="9.61" overflow="visible" transform="matrix(1 0 0 -1 0 9.61)" width="55.54"><span class="ltx_foreignobject_container"><span class="ltx_foreignobject_content">Phoneme</span></span></foreignobject></g></g><g class="ltx_tikzmatrix_row" transform="matrix(1 0 0 1 0 19.22)"><g class="ltx_tikzmatrix_col ltx_nopad_r" transform="matrix(1 0 0 -1 0 0)"><foreignobject style="--ltx-fo-width:4.96em;--ltx-fo-height:0.69em;--ltx-fo-depth:0.19em;font-size:10pt;" height="12.3" overflow="visible" transform="matrix(1 0 0 -1 0 9.61)" width="68.61"><span class="ltx_foreignobject_container"><span class="ltx_foreignobject_content">Embedding</span></span></foreignobject></g></g></g></g><g style="--ltx-stroke-color:#000000;--ltx-fill-color:#5695C5;" fill="#5695C5" stroke="#000000" stroke-width="1.42264pt"><path d="M 61.64 -20.76 h 40.74 v 41.51 h -40.74 Z" /></g><g style="--ltx-stroke-color:#000000;--ltx-fill-color:#000000;" fill="#000000" stroke="#000000" stroke-width="1.42264pt" transform="matrix(1.0 0.0 0.0 1.0 66.25 -9.19)"><g class="ltx_tikzmatrix" transform="matrix(1 0 0 -1 0 18.37)"><g class="ltx_tikzmatrix_row" transform="matrix(1 0 0 1 0 8.92)"><g class="ltx_tikzmatrix_col ltx_nopad_r" transform="matrix(1 0 0 -1 2.88 0)"><foreignobject style="--ltx-fo-width:1.86em;--ltx-fo-height:0.64em;--ltx-fo-depth:0em;font-size:10pt;" height="8.92" overflow="visible" transform="matrix(1 0 0 -1 0 8.92)" width="25.75"><span class="ltx_foreignobject_container"><span class="ltx_foreignobject_content">5x1 </span></span></foreignobject></g></g><g class="ltx_tikzmatrix_row" transform="matrix(1 0 0 1 0 18.38)"><g class="ltx_tikzmatrix_col ltx_nopad_r" transform="matrix(1 0 0 -1 0 0)"><foreignobject style="--ltx-fo-width:2.31em;--ltx-fo-height:0.68em;--ltx-fo-depth:0em;font-size:10pt;" height="9.46" overflow="visible" transform="matrix(1 0 0 -1 0 9.46)" width="31.9"><span class="ltx_foreignobject_container"><span class="ltx_foreignobject_content">Conv</span></span></foreignobject></g></g></g></g><g style="--ltx-stroke-color:#000000;--ltx-fill-color:#000000;" fill="#000000" stroke="#000000"><g stroke-width="0.4pt"><g style="--ltx-stroke-color:#000000;--ltx-fill-color:#000000;" fill="#000000" stroke="#000000" transform="matrix(1.0 0.0 0.0 1.0 -8.9 -59.02)"><foreignobject style="--ltx-fo-width:1.29em;--ltx-fo-height:0.84em;--ltx-fo-depth:0.15em;font-size:10pt;" height="13.72" overflow="visible" transform="matrix(1 0 0 -1 0 11.64)" width="17.81"><span class="ltx_foreignobject_container"><span class="ltx_foreignobject_content"><math id="S2.F1.pic1.m1" class="ltx_Math" alttext="a_{1}^{N}" display="inline" intent=":literal"><semantics><msubsup><mi>a</mi><mn>1</mn><mi>N</mi></msubsup><annotation encoding="application/x-tex">a_{1}^{N}</annotation></semantics></math></span></span></foreignobject></g><g style="--ltx-stroke-color:#000000;--ltx-fill-color:#000000;" fill="#000000" stroke="#000000" transform="matrix(1.0 0.0 0.0 1.0 74.9 23.86)"><foreignobject style="--ltx-fo-width:1.03em;--ltx-fo-height:0.64em;--ltx-fo-depth:0em;font-size:10pt;" height="8.92" overflow="visible" transform="matrix(1 0 0 -1 0 8.92)" width="14.22"><span class="ltx_foreignobject_container"><span class="ltx_foreignobject_content"><span id="S2.F1.pic1.1" class="ltx_text">3x</span></span></span></foreignobject></g><g style="--ltx-stroke-color:#000000;--ltx-fill-color:#5695C5;" fill="#5695C5" stroke="#000000" stroke-width="1.42264pt"><path d="M 125.11 -20.76 h 88.58 v 41.51 h -88.58 Z" /></g><g style="--ltx-stroke-color:#000000;--ltx-fill-color:#000000;" fill="#000000" stroke="#000000" stroke-width="1.42264pt" transform="matrix(1.0 0.0 0.0 1.0 140.76 -4.73)"><foreignobject style="--ltx-fo-width:4.14em;--ltx-fo-height:0.68em;--ltx-fo-depth:0em;font-size:10pt;" height="9.46" overflow="visible" transform="matrix(1 0 0 -1 0 9.46)" width="57.27"><span class="ltx_foreignobject_container"><span class="ltx_foreignobject_content"><span id="S2.F1.pic1.2" class="ltx_text">Bi-LSTM</span></span></span></foreignobject></g><g style="--ltx-stroke-color:#000000;--ltx-fill-color:#BCE1ED;" fill="#BCE1ED" stroke="#000000" stroke-width="1.42264pt"><path d="M -150.22 -20.76 h 88.58 v 41.51 h -88.58 Z" /></g><g style="--ltx-stroke-color:#000000;--ltx-fill-color:#000000;" fill="#000000" stroke="#000000" stroke-width="1.42264pt" transform="matrix(1.0 0.0 0.0 1.0 -140.24 -9.61)"><g class="ltx_tikzmatrix" transform="matrix(1 0 0 -1 0 24.6)"><g class="ltx_tikzmatrix_row" transform="matrix(1 0 0 1 0 9.61)"><g class="ltx_tikzmatrix_col ltx_nopad_r" transform="matrix(1 0 0 -1 10.65 0)"><foreignobject style="--ltx-fo-width:3.42em;--ltx-fo-height:0.69em;--ltx-fo-depth:0.19em;font-size:10pt;" height="12.3" overflow="visible" transform="matrix(1 0 0 -1 0 9.61)" width="47.32"><span class="ltx_foreignobject_container"><span class="ltx_foreignobject_content">Speaker</span></span></foreignobject></g></g><g class="ltx_tikzmatrix_row" transform="matrix(1 0 0 1 0 21.91)"><g class="ltx_tikzmatrix_col ltx_nopad_r" transform="matrix(1 0 0 -1 0 0)"><foreignobject style="--ltx-fo-width:4.96em;--ltx-fo-height:0.69em;--ltx-fo-depth:0.19em;font-size:10pt;" height="12.3" overflow="visible" transform="matrix(1 0 0 -1 0 9.61)" width="68.61"><span class="ltx_foreignobject_container"><span class="ltx_foreignobject_content">Embedding</span></span></foreignobject></g></g></g></g><g style="--ltx-stroke-color:#000000;--ltx-fill-color:#000000;" fill="#000000" stroke="#000000" transform="matrix(1.0 0.0 0.0 1.0 -109.52 -56.84)"><foreignobject style="--ltx-fo-width:0.52em;--ltx-fo-height:0.68em;--ltx-fo-depth:0em;font-size:10pt;" height="9.46" overflow="visible" transform="matrix(1 0 0 -1 0 9.46)" width="7.17"><span class="ltx_foreignobject_container"><span class="ltx_foreignobject_content"><math id="S2.F1.pic1.m2" class="ltx_Math" alttext="I" display="inline" intent=":literal"><semantics><mi>I</mi><annotation encoding="application/x-tex">I</annotation></semantics></math></span></span></foreignobject></g><g style="--ltx-stroke-color:#000000;--ltx-fill-color:#FDBE80;" fill="#FDBE80" stroke="#000000" stroke-width="1.42264pt"><path d="M -139.18 60.08 h 66.49 v 41.51 h -66.49 Z" /></g><g style="--ltx-stroke-color:#000000;--ltx-fill-color:#000000;" fill="#000000" stroke="#000000" stroke-width="1.42264pt" transform="matrix(1.0 0.0 0.0 1.0 -134.57 76.11)"><foreignobject style="--ltx-fo-width:4.17em;--ltx-fo-height:0.68em;--ltx-fo-depth:0em;font-size:10pt;" height="9.46" overflow="visible" transform="matrix(1 0 0 -1 0 9.46)" width="57.66"><span class="ltx_foreignobject_container"><span class="ltx_foreignobject_content">3x1 Conv</span></span></foreignobject></g><g style="--ltx-stroke-color:#000000;--ltx-fill-color:#000000;" fill="#000000" stroke="#000000" transform="matrix(1.0 0.0 0.0 1.0 -113.04 104.7)"><foreignobject style="--ltx-fo-width:1.03em;--ltx-fo-height:0.64em;--ltx-fo-depth:0em;font-size:10pt;" height="8.92" overflow="visible" transform="matrix(1 0 0 -1 0 8.92)" width="14.22"><span class="ltx_foreignobject_container"><span class="ltx_foreignobject_content"><span id="S2.F1.pic1.3" class="ltx_text">2x</span></span></span></foreignobject></g><g style="--ltx-stroke-color:#000000;--ltx-fill-color:#FDBE80;" fill="#FDBE80" stroke="#000000" stroke-width="1.42264pt"><path d="M -49.96 60.08 h 47.89 v 41.51 h -47.89 Z" /></g><g style="--ltx-stroke-color:#000000;--ltx-fill-color:#000000;" fill="#000000" stroke="#000000" stroke-width="1.42264pt" transform="matrix(1.0 0.0 0.0 1.0 -45.35 76.11)"><foreignobject style="--ltx-fo-width:2.79em;--ltx-fo-height:0.68em;--ltx-fo-depth:0em;font-size:10pt;" height="9.46" overflow="visible" transform="matrix(1 0 0 -1 0 9.46)" width="38.67"><span class="ltx_foreignobject_container"><span class="ltx_foreignobject_content"><span id="S2.F1.pic1.4" class="ltx_text">Linear</span></span></span></foreignobject></g><g style="--ltx-stroke-color:#000000;--ltx-fill-color:#FFFFCC;" fill="#FFFFCC" stroke="#000000" stroke-width="1.42264pt"><path d="M 31.72 60.08 h 69.11 v 41.51 h -69.11 Z" /></g><g style="--ltx-stroke-color:#000000;--ltx-fill-color:#000000;" fill="#000000" stroke="#000000" stroke-width="1.42264pt" transform="matrix(1.0 0.0 0.0 1.0 36.34 70.04)"><g class="ltx_tikzmatrix" transform="matrix(1 0 0 -1 0 21.6)"><g class="ltx_tikzmatrix_row" transform="matrix(1 0 0 1 0 9.46)"><g class="ltx_tikzmatrix_col ltx_nopad_r" transform="matrix(1 0 0 -1 10.13 0)"><foreignobject style="--ltx-fo-width:2.95em;--ltx-fo-height:0.68em;--ltx-fo-depth:0.19em;font-size:10pt;" height="12.15" overflow="visible" transform="matrix(1 0 0 -1 0 9.46)" width="40.78"><span class="ltx_foreignobject_container"><span class="ltx_foreignobject_content">Target</span></span></foreignobject></g></g><g class="ltx_tikzmatrix_row" transform="matrix(1 0 0 1 0 21.61)"><g class="ltx_tikzmatrix_col ltx_nopad_r" transform="matrix(1 0 0 -1 0 0)"><foreignobject style="--ltx-fo-width:4.33em;--ltx-fo-height:0.68em;--ltx-fo-depth:0em;font-size:10pt;" height="9.46" overflow="visible" transform="matrix(1 0 0 -1 0 9.46)" width="59.88"><span class="ltx_foreignobject_container"><span class="ltx_foreignobject_content">Durations</span></span></foreignobject></g></g></g></g><path style="fill:none" d="M -96.82 40.93 L -105.93 50.04 L -115.04 40.93 L -105.93 31.82 Z" /><foreignobject overflow="visible"><span class="ltx_foreignobject_container"><span class="ltx_foreignobject_content"><span id="S2.F1.pic1.5" class="ltx_text"></span></span></span></foreignobject><g style="--ltx-stroke-color:#000000;--ltx-fill-color:#BCE1ED;" fill="#BCE1ED" stroke="#000000" stroke-width="1.42264pt"><path d="M 125.11 60.08 h 88.58 v 41.51 h -88.58 Z" /></g><g style="--ltx-stroke-color:#000000;--ltx-fill-color:#000000;" fill="#000000" stroke="#000000" stroke-width="1.42264pt" transform="matrix(1.0 0.0 0.0 1.0 133.42 77.38)"><foreignobject style="--ltx-fo-width:5.2em;--ltx-fo-height:0.69em;--ltx-fo-depth:0.19em;font-size:10pt;" height="12.3" overflow="visible" transform="matrix(1 0 0 -1 0 9.61)" width="71.95"><span class="ltx_foreignobject_container"><span class="ltx_foreignobject_content">Upsampling</span></span></foreignobject></g><g style="--ltx-stroke-color:#000000;--ltx-fill-color:#E15255;" fill="#E15255" stroke="#000000" stroke-width="1.42264pt"><path d="M -139.18 145.07 h 66.49 v 41.51 h -66.49 Z" /></g><g style="--ltx-stroke-color:#000000;--ltx-fill-color:#000000;" fill="#000000" stroke="#000000" stroke-width="1.42264pt" transform="matrix(1.0 0.0 0.0 1.0 -134.57 161.1)"><foreignobject style="--ltx-fo-width:4.14em;--ltx-fo-height:0.68em;--ltx-fo-depth:0em;font-size:10pt;" height="9.46" overflow="visible" transform="matrix(1 0 0 -1 0 9.46)" width="57.27"><span class="ltx_foreignobject_container"><span class="ltx_foreignobject_content"><span id="S2.F1.pic1.6" class="ltx_text">Bi-LSTM</span></span></span></foreignobject></g><g style="--ltx-stroke-color:#000000;--ltx-fill-color:#E15255;" fill="#E15255" stroke="#000000" stroke-width="1.42264pt"><path d="M -43.04 145.07 h 66.49 v 41.51 h -66.49 Z" /></g><g style="--ltx-stroke-color:#000000;--ltx-fill-color:#000000;" fill="#000000" stroke="#000000" stroke-width="1.42264pt" transform="matrix(1.0 0.0 0.0 1.0 -38.43 161.1)"><foreignobject style="--ltx-fo-width:4.14em;--ltx-fo-height:0.68em;--ltx-fo-depth:0em;font-size:10pt;" height="9.46" overflow="visible" transform="matrix(1 0 0 -1 0 9.46)" width="57.27"><span class="ltx_foreignobject_container"><span class="ltx_foreignobject_content"><span id="S2.F1.pic1.7" class="ltx_text">Bi-LSTM</span></span></span></foreignobject></g><g style="--ltx-stroke-color:#000000;--ltx-fill-color:#E15255;" fill="#E15255" stroke="#000000" stroke-width="1.42264pt"><path d="M 53.09 145.07 h 47.89 v 41.51 h -47.89 Z" /></g><g style="--ltx-stroke-color:#000000;--ltx-fill-color:#000000;" fill="#000000" stroke="#000000" stroke-width="1.42264pt" transform="matrix(1.0 0.0 0.0 1.0 57.71 161.1)"><foreignobject style="--ltx-fo-width:2.79em;--ltx-fo-height:0.68em;--ltx-fo-depth:0em;font-size:10pt;" height="9.46" overflow="visible" transform="matrix(1 0 0 -1 0 9.46)" width="38.67"><span class="ltx_foreignobject_container"><span class="ltx_foreignobject_content"><span id="S2.F1.pic1.8" class="ltx_text">Linear</span></span></span></foreignobject></g><g style="--ltx-stroke-color:#000000;--ltx-fill-color:#FFFFCC;" fill="#FFFFCC" stroke="#000000" stroke-width="1.42264pt"><path d="M 126.5 145.07 h 85.79 v 41.51 h -85.79 Z" /></g><g style="--ltx-stroke-color:#000000;--ltx-fill-color:#000000;" fill="#000000" stroke="#000000" stroke-width="1.42264pt" transform="matrix(1.0 0.0 0.0 1.0 131.11 156.37)"><g class="ltx_tikzmatrix" transform="matrix(1 0 0 -1 0 24.29)"><g class="ltx_tikzmatrix_row" transform="matrix(1 0 0 1 0 9.46)"><g class="ltx_tikzmatrix_col ltx_nopad_r" transform="matrix(1 0 0 -1 16.16 0)"><foreignobject style="--ltx-fo-width:3.28em;--ltx-fo-height:0.68em;--ltx-fo-depth:0.19em;font-size:10pt;" height="12.15" overflow="visible" transform="matrix(1 0 0 -1 0 9.46)" width="45.39"><span class="ltx_foreignobject_container"><span class="ltx_foreignobject_content">Target </span></span></foreignobject></g></g><g class="ltx_tikzmatrix_row" transform="matrix(1 0 0 1 0 21.61)"><g class="ltx_tikzmatrix_col ltx_nopad_r" transform="matrix(1 0 0 -1 0 0)"><foreignobject style="--ltx-fo-width:5.51em;--ltx-fo-height:0.68em;--ltx-fo-depth:0.19em;font-size:10pt;" height="12.15" overflow="visible" transform="matrix(1 0 0 -1 0 9.46)" width="76.18"><span class="ltx_foreignobject_container"><span class="ltx_foreignobject_content">Spectrogram</span></span></foreignobject></g></g></g></g><path style="fill:none" d="M -96.82 125.92 L -105.93 135.03 L -115.04 125.92 L -105.93 116.81 Z" /><foreignobject overflow="visible"><span class="ltx_foreignobject_container"><span class="ltx_foreignobject_content"><span id="S2.F1.pic1.9" class="ltx_text"></span></span></span></foreignobject></g><g stroke-width="1.42264pt"><path style="fill:none" d="M 0 -42.5 L 0 -23.26" /></g><g stroke-dasharray="none" stroke-dashoffset="0.0pt" stroke-linecap="round" stroke-linejoin="round" stroke-width="1.1381pt" transform="matrix(0.0 1.0 -1.0 0.0 0 -23.26)"><path style="fill:none" d="M -2.93 3.91 C -2.69 2.44 0 0.24 0.73 0 C 0 -0.24 -2.69 -2.44 -2.93 -3.91" /></g><g stroke-width="1.42264pt"><path style="fill:none" d="M -105.93 -42.5 L -105.93 -23.26" /></g><g stroke-dasharray="none" stroke-dashoffset="0.0pt" stroke-linecap="round" stroke-linejoin="round" stroke-width="1.1381pt" transform="matrix(0.0 1.0 -1.0 0.0 -105.93 -23.26)"><path style="fill:none" d="M -2.93 3.91 C -2.69 2.44 0 0.24 0.73 0 C 0 -0.24 -2.69 -2.44 -2.93 -3.91" /></g><g stroke-width="1.42264pt"><path style="fill:none" d="M 39.9 0 L 59.14 0" /></g><g stroke-dasharray="none" stroke-dashoffset="0.0pt" stroke-linecap="round" stroke-linejoin="round" stroke-width="1.1381pt" transform="matrix(1.0 0.0 0.0 1.0 59.14 0)"><path style="fill:none" d="M -2.93 3.91 C -2.69 2.44 0 0.24 0.73 0 C 0 -0.24 -2.69 -2.44 -2.93 -3.91" /></g><g stroke-width="1.42264pt"><path style="fill:none" d="M 103.37 0 L 122.6 0" /></g><g stroke-dasharray="none" stroke-dashoffset="0.0pt" stroke-linecap="round" stroke-linejoin="round" stroke-width="1.1381pt" transform="matrix(1.0 0.0 0.0 1.0 122.6 0)"><path style="fill:none" d="M -2.93 3.91 C -2.69 2.44 0 0.24 0.73 0 C 0 -0.24 -2.69 -2.44 -2.93 -3.91" /></g><g stroke-width="1.42264pt"><path style="fill:none" d="M 169.4 21.74 L 169.4 40.93 L -94.91 40.93" /></g><g stroke-dasharray="none" stroke-dashoffset="0.0pt" stroke-linecap="round" stroke-linejoin="round" stroke-width="1.1381pt" transform="matrix(-1.0 0.0 0.0 -1.0 -94.91 40.93)"><path style="fill:none" d="M -2.93 3.91 C -2.69 2.44 0 0.24 0.73 0 C 0 -0.24 -2.69 -2.44 -2.93 -3.91" /></g><g stroke-width="1.42264pt"><path style="fill:none" d="M -105.93 21.74 L -105.93 29.9" /></g><g stroke-dasharray="none" stroke-dashoffset="0.0pt" stroke-linecap="round" stroke-linejoin="round" stroke-width="1.1381pt" transform="matrix(0.0 1.0 -1.0 0.0 -105.93 29.9)"><path style="fill:none" d="M -2.93 3.91 C -2.69 2.44 0 0.24 0.73 0 C 0 -0.24 -2.69 -2.44 -2.93 -3.91" /></g><g stroke-width="1.42264pt"><path style="fill:none" d="M -105.93 50.43 L -105.93 57.58" /></g><g stroke-dasharray="none" stroke-dashoffset="0.0pt" stroke-linecap="round" stroke-linejoin="round" stroke-width="1.1381pt" transform="matrix(0.0 1.0 -1.0 0.0 -105.93 57.58)"><path style="fill:none" d="M -2.93 3.91 C -2.69 2.44 0 0.24 0.73 0 C 0 -0.24 -2.69 -2.44 -2.93 -3.91" /></g><g stroke-width="1.42264pt"><path style="fill:none" d="M -71.7 80.84 L -52.47 80.84" /></g><g stroke-dasharray="none" stroke-dashoffset="0.0pt" stroke-linecap="round" stroke-linejoin="round" stroke-width="1.1381pt" transform="matrix(1.0 0.0 0.0 1.0 -52.47 80.84)"><path style="fill:none" d="M -2.93 3.91 C -2.69 2.44 0 0.24 0.73 0 C 0 -0.24 -2.69 -2.44 -2.93 -3.91" /></g><g stroke-width="1.42264pt"><g style="--ltx-stroke-color:#FF0000;--ltx-fill-color:#FF0000;--ltx-fg-color:#FF0000;" color="#FF0000" fill="#FF0000" stroke="#FF0000"><path style="fill:none" d="M -1.09 80.84 L 30.74 80.84" /></g><g style="--ltx-stroke-color:#000000;--ltx-fill-color:#000000;--ltx-fg-color:#000000;" color="#000000" fill="#000000" stroke="#000000" transform="matrix(1.0 0.0 0.0 1.0 5.74 88.51)"><foreignobject style="--ltx-fg-color:#000000;--ltx-fo-width:1.31em;--ltx-fo-height:0.84em;--ltx-fo-depth:0.15em;font-size:10pt;" color="#000000" height="13.72" overflow="visible" transform="matrix(1 0 0 -1 0 11.64)" width="18.18"><span class="ltx_foreignobject_container"><span class="ltx_foreignobject_content"><math id="S2.F1.pic1.m3" class="ltx_Math" alttext="\hat{d}_{1}^{N}" display="inline" intent=":literal"><semantics><msubsup><mover accent="true"><mi style="--ltx-fg-color:#000000;" mathcolor="#000000">d</mi><mo style="--ltx-fg-color:#000000;" mathcolor="#000000">^</mo></mover><mn style="--ltx-fg-color:#000000;" mathcolor="#000000">1</mn><mi style="--ltx-fg-color:#000000;" mathcolor="#000000">N</mi></msubsup><annotation encoding="application/x-tex">\hat{d}_{1}^{N}</annotation></semantics></math></span></span></foreignobject></g></g><g stroke-width="1.42264pt"><path style="fill:none" d="M 169.4 21.74 L 169.4 57.58" /><g stroke-dasharray="none" stroke-dashoffset="0.0pt" stroke-linecap="round" stroke-linejoin="round" stroke-width="1.1381pt" transform="matrix(0.0 1.0 -1.0 0.0 169.4 57.58)"><path style="fill:none" d="M -2.93 3.91 C -2.69 2.44 0 0.24 0.73 0 C 0 -0.24 -2.69 -2.44 -2.93 -3.91" /></g><g style="--ltx-stroke-color:#000000;--ltx-fill-color:#000000;" fill="#000000" stroke="#000000" transform="matrix(1.0 0.0 0.0 1.0 174.99 35.64)"><foreignobject style="--ltx-fo-width:1.33em;--ltx-fo-height:0.84em;--ltx-fo-depth:0.15em;font-size:10pt;" height="13.72" overflow="visible" transform="matrix(1 0 0 -1 0 11.64)" width="18.47"><span class="ltx_foreignobject_container"><span class="ltx_foreignobject_content"><math id="S2.F1.pic1.m4" class="ltx_Math" alttext="h_{1}^{N}" display="inline" intent=":literal"><semantics><msubsup><mi>h</mi><mn>1</mn><mi>N</mi></msubsup><annotation encoding="application/x-tex">h_{1}^{N}</annotation></semantics></math></span></span></foreignobject></g></g><g stroke-width="1.42264pt"><path style="fill:none" d="M 101.82 80.84 L 122.6 80.84" /><g stroke-dasharray="none" stroke-dashoffset="0.0pt" stroke-linecap="round" stroke-linejoin="round" stroke-width="1.1381pt" transform="matrix(1.0 0.0 0.0 1.0 122.6 80.84)"><path style="fill:none" d="M -2.93 3.91 C -2.69 2.44 0 0.24 0.73 0 C 0 -0.24 -2.69 -2.44 -2.93 -3.91" /></g><g style="--ltx-stroke-color:#000000;--ltx-fill-color:#000000;" fill="#000000" stroke="#000000" transform="matrix(1.0 0.0 0.0 1.0 104.12 88.51)"><foreignobject style="--ltx-fo-width:1.28em;--ltx-fo-height:0.84em;--ltx-fo-depth:0.15em;font-size:10pt;" height="13.72" overflow="visible" transform="matrix(1 0 0 -1 0 11.64)" width="17.7"><span class="ltx_foreignobject_container"><span class="ltx_foreignobject_content"><math id="S2.F1.pic1.m5" class="ltx_Math" alttext="d_{1}^{N}" display="inline" intent=":literal"><semantics><msubsup><mi>d</mi><mn>1</mn><mi>N</mi></msubsup><annotation encoding="application/x-tex">d_{1}^{N}</annotation></semantics></math></span></span></foreignobject></g></g><g stroke-width="1.42264pt"><path style="fill:none" d="M -151.21 0 L -170.89 0 L -170.89 125.92 L -116.95 125.92" /></g><g stroke-dasharray="none" stroke-dashoffset="0.0pt" stroke-linecap="round" stroke-linejoin="round" stroke-width="1.1381pt" transform="matrix(1.0 0.0 0.0 1.0 -116.95 125.92)"><path style="fill:none" d="M -2.93 3.91 C -2.69 2.44 0 0.24 0.73 0 C 0 -0.24 -2.69 -2.44 -2.93 -3.91" /></g><g stroke-width="1.42264pt"><path style="fill:none" d="M 169.4 102.58 L 169.4 125.92 L -94.91 125.92" /><g stroke-dasharray="none" stroke-dashoffset="0.0pt" stroke-linecap="round" stroke-linejoin="round" stroke-width="1.1381pt" transform="matrix(-1.0 0.0 0.0 -1.0 -94.91 125.92)"><path style="fill:none" d="M -2.93 3.91 C -2.69 2.44 0 0.24 0.73 0 C 0 -0.24 -2.69 -2.44 -2.93 -3.91" /></g><g style="--ltx-stroke-color:#000000;--ltx-fill-color:#000000;--ltx-fg-color:#000000;" color="#000000" fill="#000000" stroke="#000000" transform="matrix(1.0 0.0 0.0 1.0 174.99 107.93)"><foreignobject style="--ltx-fg-color:#000000;--ltx-fo-width:1.48em;--ltx-fo-height:1.06em;--ltx-fo-depth:0.15em;font-size:10pt;" color="#000000" height="16.78" overflow="visible" transform="matrix(1 0 0 -1 0 14.71)" width="20.43"><span class="ltx_foreignobject_container"><span class="ltx_foreignobject_content"><math id="S2.F1.pic1.m6" class="ltx_Math" alttext="h^{{}^{\prime}T}_{1}" display="inline" intent=":literal"><semantics><msubsup><mi style="--ltx-fg-color:#000000;" mathcolor="#000000">h</mi><mn style="--ltx-fg-color:#000000;" mathcolor="#000000">1</mn><mmultiscripts><mi style="--ltx-fg-color:#000000;" mathcolor="#000000">T</mi><mprescripts></mprescripts><mrow></mrow><mo style="--ltx-fg-color:#000000;" mathcolor="#000000">′</mo></mmultiscripts></msubsup><annotation encoding="application/x-tex">h^{{}^{\prime}T}_{1}</annotation></semantics></math></span></span></foreignobject></g></g><g stroke-width="1.42264pt"><path style="fill:none" d="M -105.93 135.42 L -105.93 142.57" /></g><g stroke-dasharray="none" stroke-dashoffset="0.0pt" stroke-linecap="round" stroke-linejoin="round" stroke-width="1.1381pt" transform="matrix(0.0 1.0 -1.0 0.0 -105.93 142.57)"><path style="fill:none" d="M -2.93 3.91 C -2.69 2.44 0 0.24 0.73 0 C 0 -0.24 -2.69 -2.44 -2.93 -3.91" /></g><g stroke-width="1.42264pt"><path style="fill:none" d="M -71.7 165.83 L -45.55 165.83" /></g><g stroke-dasharray="none" stroke-dashoffset="0.0pt" stroke-linecap="round" stroke-linejoin="round" stroke-width="1.1381pt" transform="matrix(1.0 0.0 0.0 1.0 -45.55 165.83)"><path style="fill:none" d="M -2.93 3.91 C -2.69 2.44 0 0.24 0.73 0 C 0 -0.24 -2.69 -2.44 -2.93 -3.91" /></g><g stroke-width="1.42264pt"><path style="fill:none" d="M 24.44 165.83 L 50.59 165.83" /></g><g stroke-dasharray="none" stroke-dashoffset="0.0pt" stroke-linecap="round" stroke-linejoin="round" stroke-width="1.1381pt" transform="matrix(1.0 0.0 0.0 1.0 50.59 165.83)"><path style="fill:none" d="M -2.93 3.91 C -2.69 2.44 0 0.24 0.73 0 C 0 -0.24 -2.69 -2.44 -2.93 -3.91" /></g><g stroke-width="1.42264pt"><g style="--ltx-stroke-color:#FF0000;--ltx-fill-color:#FF0000;--ltx-fg-color:#FF0000;" color="#FF0000" fill="#FF0000" stroke="#FF0000"><path style="fill:none" d="M 101.97 165.83 L 125.52 165.83" /></g><g style="--ltx-stroke-color:#000000;--ltx-fill-color:#000000;--ltx-fg-color:#000000;" color="#000000" fill="#000000" stroke="#000000" transform="matrix(1.0 0.0 0.0 1.0 105.54 173.5)"><foreignobject style="--ltx-fg-color:#000000;--ltx-fo-width:1.19em;--ltx-fo-height:0.84em;--ltx-fo-depth:0.15em;font-size:10pt;" color="#000000" height="13.72" overflow="visible" transform="matrix(1 0 0 -1 0 11.64)" width="16.4"><span class="ltx_foreignobject_container"><span class="ltx_foreignobject_content"><math id="S2.F1.pic1.m7" class="ltx_Math" alttext="\hat{x}_{1}^{T}" display="inline" intent=":literal"><semantics><msubsup><mover accent="true"><mi style="--ltx-fg-color:#000000;" mathcolor="#000000">x</mi><mo style="--ltx-fg-color:#000000;" mathcolor="#000000">^</mo></mover><mn style="--ltx-fg-color:#000000;" mathcolor="#000000">1</mn><mi style="--ltx-fg-color:#000000;" mathcolor="#000000">T</mi></msubsup><annotation encoding="application/x-tex">\hat{x}_{1}^{T}</annotation></semantics></math></span></span></foreignobject></g></g></g></g></svg>