<svg xmlns="http://www.w3.org/2000/svg" version="1.1" width="642.52" height="481.89" overflow="visible"><g transform="translate(0,481.89) scale(1,-1)"><g transform="translate(0,0)"><g transform="translate(0,481.26) scale(1,-1)"><foreignobject width="642.52" height="481.26" overflow="visible"><img src="arxiv-2008-10788--23cd95782493.figures/figure-1.webp" id="S6.F2.pic1.g1" class="ltx_graphics ltx_img_landscape" style="width:100%;height:100%;object-fit:contain" width="667" height="500" alt="Refer to caption"></foreignobject></g></g><g transform="translate(113.93,385.45)"><g transform="scale(1,-1)"><text fontsize="90%" xml:id="S6.F2.pic1.1.1.1.1">0.65</text></g></g><g transform="translate(220.87,385.45)"><g transform="scale(1,-1)"><text color="#FFFFFF" fontsize="90%" xml:id="S6.F2.pic1.2.1.1.1">0.20</text></g></g><g transform="translate(326.16,385.45)"><g transform="scale(1,-1)"><text color="#FFFFFF" fontsize="90%" xml:id="S6.F2.pic1.3.1.1.1">0.10</text></g></g><g transform="translate(426.45,385.45)"><g transform="scale(1,-1)"><text color="#FFFFFF" fontsize="90%" xml:id="S6.F2.pic1.4.1.1.1">0.05</text></g></g><g transform="translate(220.87,293.21)"><g transform="scale(1,-1)"><text color="#FFFFFF" fontsize="90%" xml:id="S6.F2.pic1.5.1.1.1">0.51</text></g></g><g transform="translate(326.16,293.21)"><g transform="scale(1,-1)"><text color="#FFFFFF" fontsize="90%" xml:id="S6.F2.pic1.6.1.1.1">0.28</text></g></g><g transform="translate(426.45,293.21)"><g transform="scale(1,-1)"><text color="#FFFFFF" fontsize="90%" xml:id="S6.F2.pic1.7.1.1.1">0.10</text></g></g><g transform="translate(113.93,293.21)"><g transform="scale(1,-1)"><text color="#FFFFFF" fontsize="90%" xml:id="S6.F2.pic1.8.1.1.1">0.11</text></g></g><g transform="translate(220.87,194.82)"><g transform="scale(1,-1)"><text color="#FFFFFF" fontsize="90%" xml:id="S6.F2.pic1.9.1.1.1">0.40</text></g></g><g transform="translate(326.16,194.82)"><g transform="scale(1,-1)"><text color="#FFFFFF" fontsize="90%" xml:id="S6.F2.pic1.10.1.1.1">0.41</text></g></g><g transform="translate(426.45,194.82)"><g transform="scale(1,-1)"><text color="#FFFFFF" fontsize="90%" xml:id="S6.F2.pic1.11.1.1.1">0.14</text></g></g><g transform="translate(113.93,194.82)"><g transform="scale(1,-1)"><text color="#FFFFFF" fontsize="90%" xml:id="S6.F2.pic1.12.1.1.1">0.05</text></g></g><g transform="translate(220.87,98.42)"><g transform="scale(1,-1)"><text color="#FFFFFF" fontsize="90%" xml:id="S6.F2.pic1.13.1.1.1">0.24</text></g></g><g transform="translate(326.16,98.42)"><g transform="scale(1,-1)"><text color="#FFFFFF" fontsize="90%" xml:id="S6.F2.pic1.14.1.1.1">0.36</text></g></g><g transform="translate(426.45,98.42)"><g transform="scale(1,-1)"><text color="#FFFFFF" fontsize="90%" xml:id="S6.F2.pic1.15.1.1.1">0.38</text></g></g><g transform="translate(113.93,98.42)"><g transform="scale(1,-1)"><text color="#FFFFFF" fontsize="90%" xml:id="S6.F2.pic1.16.1.1.1">0.01</text></g></g><g transform="translate(102.1,28.35)"><g transform="scale(1,-1)"><text fontsize="90%" xml:id="S6.F2.pic1.17.1.1.1">Healthy</text></g></g><g transform="translate(215.44,28.35)"><g transform="scale(1,-1)"><text fontsize="90%" xml:id="S6.F2.pic1.18.1.1.1">Mild</text></g></g><g transform="translate(296.75,28.35)"><g transform="scale(1,-1)"><text fontsize="90%" xml:id="S6.F2.pic1.19.1.1.1">Moderate</text></g></g><g transform="translate(414.93,28.35)"><g transform="scale(1,-1)"><text fontsize="90%" xml:id="S6.F2.pic1.20.1.1.1">Severe</text></g></g><g transform="translate(70.68,358.3)"><g transform="scale(1,-1)"><text fontsize="90%" xml:id="S6.F2.pic1.pic1.1.1.1.1">Healthy</text></g></g></g></svg>