<svg id="S1.F1.pic1" class="ltx_picture ltx_centering" height="41.89" overflow="visible" version="1.1" viewbox="0 0 697.28 41.89" width="697.28"><g style="--ltx-stroke-color:#000000;--ltx-fill-color:#000000;" fill="#000000" stroke="#000000" transform="translate(0,41.89) matrix(1 0 0 -1 0 0) translate(51.46,0) translate(0,20.95)"><g stroke-width="0.4pt"><g style="--ltx-fill-color:#F5F5F5;" fill="#F5F5F5"><path d="M 45.65 20.67 L -45.65 20.67 C -48.7 20.67 -51.18 18.19 -51.18 15.13 L -51.18 -15.13 C -51.18 -18.19 -48.7 -20.67 -45.65 -20.67 L 45.65 -20.67 C 48.7 -20.67 51.18 -18.19 51.18 -15.13 L 51.18 15.13 C 51.18 18.19 48.7 20.67 45.65 20.67 Z M -51.18 -20.67" /></g><g style="--ltx-stroke-color:#000000;--ltx-fill-color:#000000;" fill="#000000" stroke="#000000" transform="matrix(1.0 0.0 0.0 1.0 -29.48 -7.21)"><g class="ltx_tikzmatrix" transform="matrix(1 0 0 -1 0 14.41)"><g class="ltx_tikzmatrix_row" transform="matrix(1 0 0 1 0 7.69)"><g class="ltx_tikzmatrix_col ltx_nopad_r" transform="matrix(1 0 0 -1 0.49 0)"><foreignobject style="--ltx-fo-width:4.93em;--ltx-fo-height:0.65em;--ltx-fo-depth:0em;font-size:8.5pt;" height="7.69" overflow="visible" transform="matrix(1 0 0 -1 0 7.69)" width="57.97"><span class="ltx_foreignobject_container"><span class="ltx_foreignobject_content"><span id="S1.F1.pic1.1" class="ltx_text" style="font-size:80%;">Raw Audio</span></span></span></foreignobject></g></g><g class="ltx_tikzmatrix_row" transform="matrix(1 0 0 1 0 14.42)"><g class="ltx_tikzmatrix_col ltx_nopad_r" transform="matrix(1 0 0 -1 0 0)"><foreignobject style="--ltx-fo-width:5.34em;--ltx-fo-height:0.61em;--ltx-fo-depth:0em;font-size:7.97pt;" height="6.73" overflow="visible" transform="matrix(1 0 0 -1 0 6.73)" width="58.95"><span class="ltx_foreignobject_container"><span class="ltx_foreignobject_content"><span id="S1.F1.pic1.2" class="ltx_text" style="font-size:70%;">16kHz PCM</span></span></span></foreignobject></g></g></g></g><g style="--ltx-fill-color:#F5F5F5;" fill="#F5F5F5"><path d="M 162.34 20.67 L 71.05 20.67 C 67.99 20.67 65.51 18.19 65.51 15.13 L 65.51 -15.13 C 65.51 -18.19 67.99 -20.67 71.05 -20.67 L 162.34 -20.67 C 165.4 -20.67 167.88 -18.19 167.88 -15.13 L 167.88 15.13 C 167.88 18.19 165.4 20.67 162.34 20.67 Z M 65.51 -20.67" /></g><g style="--ltx-stroke-color:#000000;--ltx-fill-color:#000000;" fill="#000000" stroke="#000000" transform="matrix(1.0 0.0 0.0 1.0 71.84 -6.2)"><g class="ltx_tikzmatrix" transform="matrix(1 0 0 -1 0 17.25)"><g class="ltx_tikzmatrix_row" transform="matrix(1 0 0 1 0 7.56)"><g class="ltx_tikzmatrix_col ltx_nopad_r" transform="matrix(1 0 0 -1 31.56 0)"><foreignobject style="--ltx-fo-width:2.26em;--ltx-fo-height:0.64em;--ltx-fo-depth:0em;font-size:8.5pt;" height="7.56" overflow="visible" transform="matrix(1 0 0 -1 0 7.56)" width="26.6"><span class="ltx_foreignobject_container"><span class="ltx_foreignobject_content"><span id="S1.F1.pic1.3" class="ltx_text" style="font-size:80%;">VAD</span></span></span></foreignobject></g></g><g class="ltx_tikzmatrix_row" transform="matrix(1 0 0 1 0 14.82)"><g class="ltx_tikzmatrix_col ltx_nopad_r" transform="matrix(1 0 0 -1 0 0)"><foreignobject style="--ltx-fo-width:8.13em;--ltx-fo-height:0.66em;--ltx-fo-depth:0.22em;font-size:7.97pt;" height="9.69" overflow="visible" transform="matrix(1 0 0 -1 0 7.26)" width="89.72"><span class="ltx_foreignobject_container"><span class="ltx_foreignobject_content"><span id="S1.F1.pic1.4" class="ltx_text" style="font-size:70%;">speech/non-speech</span></span></span></foreignobject></g></g></g></g><g style="--ltx-fill-color:#F5F5F5;" fill="#F5F5F5"><path d="M 289.93 20.67 L 187.74 20.67 C 184.69 20.67 182.21 18.19 182.21 15.13 L 182.21 -15.13 C 182.21 -18.19 184.69 -20.67 187.74 -20.67 L 289.93 -20.67 C 292.99 -20.67 295.46 -18.19 295.46 -15.13 L 295.46 15.13 C 295.46 18.19 292.99 20.67 289.93 20.67 Z M 182.21 -20.67" /></g><g style="--ltx-stroke-color:#000000;--ltx-fill-color:#000000;" fill="#000000" stroke="#000000" transform="matrix(1.0 0.0 0.0 1.0 186.82 -6.2)"><g class="ltx_tikzmatrix" transform="matrix(1 0 0 -1 0 16.17)"><g class="ltx_tikzmatrix_row" transform="matrix(1 0 0 1 0 7.56)"><g class="ltx_tikzmatrix_col ltx_nopad_r" transform="matrix(1 0 0 -1 12.24 0)"><foreignobject style="--ltx-fo-width:6.76em;--ltx-fo-height:0.64em;--ltx-fo-depth:0em;font-size:8.5pt;" height="7.56" overflow="visible" transform="matrix(1 0 0 -1 0 7.56)" width="79.56"><span class="ltx_foreignobject_container"><span class="ltx_foreignobject_content"><span id="S1.F1.pic1.5" class="ltx_text" style="font-size:80%;">Turn Detection</span></span></span></foreignobject></g></g><g class="ltx_tikzmatrix_row" transform="matrix(1 0 0 1 0 14.29)"><g class="ltx_tikzmatrix_col ltx_nopad_r" transform="matrix(1 0 0 -1 0 0)"><foreignobject style="--ltx-fo-width:9.27em;--ltx-fo-height:0.61em;--ltx-fo-depth:0.17em;font-size:7.97pt;" height="8.61" overflow="visible" transform="matrix(1 0 0 -1 0 6.73)" width="102.25"><span class="ltx_foreignobject_container"><span class="ltx_foreignobject_content"><span id="S1.F1.pic1.6" class="ltx_text" style="font-size:70%;">end-of-turn vs. pause</span></span></span></foreignobject></g></g></g></g><g style="--ltx-fill-color:#F5F5F5;" fill="#F5F5F5"><path d="M 406.63 20.67 L 315.33 20.67 C 312.28 20.67 309.8 18.19 309.8 15.13 L 309.8 -15.13 C 309.8 -18.19 312.28 -20.67 315.33 -20.67 L 406.63 -20.67 C 409.68 -20.67 412.16 -18.19 412.16 -15.13 L 412.16 15.13 C 412.16 18.19 409.68 20.67 406.63 20.67 Z M 309.8 -20.67" /></g><g style="--ltx-stroke-color:#000000;--ltx-fill-color:#000000;" fill="#000000" stroke="#000000" transform="matrix(1.0 0.0 0.0 1.0 314.76 -7.28)"><g class="ltx_tikzmatrix" transform="matrix(1 0 0 -1 0 18.32)"><g class="ltx_tikzmatrix_row" transform="matrix(1 0 0 1 0 7.56)"><g class="ltx_tikzmatrix_col ltx_nopad_r" transform="matrix(1 0 0 -1 6.12 0)"><foreignobject style="--ltx-fo-width:6.82em;--ltx-fo-height:0.64em;--ltx-fo-depth:0.18em;font-size:8.5pt;" height="9.72" overflow="visible" transform="matrix(1 0 0 -1 0 7.56)" width="80.2"><span class="ltx_foreignobject_container"><span class="ltx_foreignobject_content"><span id="S1.F1.pic1.7" class="ltx_text" style="font-size:80%;">Streaming ASR</span></span></span></foreignobject></g></g><g class="ltx_tikzmatrix_row" transform="matrix(1 0 0 1 0 16.45)"><g class="ltx_tikzmatrix_col ltx_nopad_r" transform="matrix(1 0 0 -1 0 0)"><foreignobject style="--ltx-fo-width:8.38em;--ltx-fo-height:0.61em;--ltx-fo-depth:0.17em;font-size:7.97pt;" height="8.61" overflow="visible" transform="matrix(1 0 0 -1 0 6.73)" width="92.44"><span class="ltx_foreignobject_container"><span class="ltx_foreignobject_content"><span id="S1.F1.pic1.8" class="ltx_text" style="font-size:70%;">partial + final text</span></span></span></foreignobject></g></g></g></g><g style="--ltx-fill-color:#F5F5F5;" fill="#F5F5F5"><path d="M 523.32 20.67 L 432.03 20.67 C 428.97 20.67 426.49 18.19 426.49 15.13 L 426.49 -15.13 C 426.49 -18.19 428.97 -20.67 432.03 -20.67 L 523.32 -20.67 C 526.38 -20.67 528.86 -18.19 528.86 -15.13 L 528.86 15.13 C 528.86 18.19 526.38 20.67 523.32 20.67 Z M 426.49 -20.67" /></g><g style="--ltx-stroke-color:#000000;--ltx-fill-color:#000000;" fill="#000000" stroke="#000000" transform="matrix(1.0 0.0 0.0 1.0 435.93 -7.64)"><g class="ltx_tikzmatrix" transform="matrix(1 0 0 -1 0 17.59)"><g class="ltx_tikzmatrix_row" transform="matrix(1 0 0 1 0 7.56)"><g class="ltx_tikzmatrix_col ltx_nopad_r" transform="matrix(1 0 0 -1 0.81 0)"><foreignobject style="--ltx-fo-width:6.96em;--ltx-fo-height:0.64em;--ltx-fo-depth:0.18em;font-size:8.5pt;" height="9.72" overflow="visible" transform="matrix(1 0 0 -1 0 7.56)" width="81.88"><span class="ltx_foreignobject_container"><span class="ltx_foreignobject_content"><span id="S1.F1.pic1.9" class="ltx_text" style="font-size:80%;">LLM Reasoning</span></span></span></foreignobject></g></g><g class="ltx_tikzmatrix_row" transform="matrix(1 0 0 1 0 16.45)"><g class="ltx_tikzmatrix_col ltx_nopad_r" transform="matrix(1 0 0 -1 0 0)"><foreignobject style="--ltx-fo-width:7.6em;--ltx-fo-height:0.61em;--ltx-fo-depth:0.1em;font-size:7.97pt;" height="7.88" overflow="visible" transform="matrix(1 0 0 -1 0 6.73)" width="83.79"><span class="ltx_foreignobject_container"><span class="ltx_foreignobject_content"><span id="S1.F1.pic1.10" class="ltx_text" style="font-size:70%;">intent + tool call</span></span></span></foreignobject></g></g></g></g><g style="--ltx-fill-color:#F5F5F5;" fill="#F5F5F5"><path d="M 640.02 20.67 L 548.72 20.67 C 545.67 20.67 543.19 18.19 543.19 15.13 L 543.19 -15.13 C 543.19 -18.19 545.67 -20.67 548.72 -20.67 L 640.02 -20.67 C 643.07 -20.67 645.55 -18.19 645.55 -15.13 L 645.55 15.13 C 645.55 18.19 643.07 20.67 640.02 20.67 Z M 543.19 -20.67" /></g><g style="--ltx-stroke-color:#000000;--ltx-fill-color:#000000;" fill="#000000" stroke="#000000" transform="matrix(1.0 0.0 0.0 1.0 555.59 -6.2)"><g class="ltx_tikzmatrix" transform="matrix(1 0 0 -1 0 16.17)"><g class="ltx_tikzmatrix_row" transform="matrix(1 0 0 1 0 7.56)"><g class="ltx_tikzmatrix_col ltx_nopad_r" transform="matrix(1 0 0 -1 27.01 0)"><foreignobject style="--ltx-fo-width:2em;--ltx-fo-height:0.64em;--ltx-fo-depth:0em;font-size:8.5pt;" height="7.56" overflow="visible" transform="matrix(1 0 0 -1 0 7.56)" width="23.52"><span class="ltx_foreignobject_container"><span class="ltx_foreignobject_content"><span id="S1.F1.pic1.11" class="ltx_text" style="font-size:80%;">TTS</span></span></span></foreignobject></g></g><g class="ltx_tikzmatrix_row" transform="matrix(1 0 0 1 0 14.29)"><g class="ltx_tikzmatrix_col ltx_nopad_r" transform="matrix(1 0 0 -1 0 0)"><foreignobject style="--ltx-fo-width:7em;--ltx-fo-height:0.61em;--ltx-fo-depth:0.17em;font-size:7.97pt;" height="8.61" overflow="visible" transform="matrix(1 0 0 -1 0 6.73)" width="77.25"><span class="ltx_foreignobject_container"><span class="ltx_foreignobject_content"><span id="S1.F1.pic1.12" class="ltx_text" style="font-size:70%;">spoken response</span></span></span></foreignobject></g></g></g></g></g><g stroke-width="0.8pt"><path style="fill:none" d="M 51.46 0 L 57.92 0" /><g stroke-dasharray="none" stroke-dashoffset="0.0pt" stroke-linejoin="miter" transform="matrix(1.0 0.0 0.0 1.0 57.92 0)"><path d="M 5.11 0 C 4.48 0.15 1.72 1.03 0 1.99 L 0 -1.99 C 1.72 -1.03 4.48 -0.15 5.11 0 Z" /></g></g><g stroke-width="0.8pt"><path style="fill:none" d="M 168.15 0 L 174.61 0" /><g stroke-dasharray="none" stroke-dashoffset="0.0pt" stroke-linejoin="miter" transform="matrix(1.0 0.0 0.0 1.0 174.61 0)"><path d="M 5.11 0 C 4.48 0.15 1.72 1.03 0 1.99 L 0 -1.99 C 1.72 -1.03 4.48 -0.15 5.11 0 Z" /></g></g><g stroke-width="0.8pt"><path style="fill:none" d="M 295.74 0 L 302.2 0" /><g stroke-dasharray="none" stroke-dashoffset="0.0pt" stroke-linejoin="miter" transform="matrix(1.0 0.0 0.0 1.0 302.2 0)"><path d="M 5.11 0 C 4.48 0.15 1.72 1.03 0 1.99 L 0 -1.99 C 1.72 -1.03 4.48 -0.15 5.11 0 Z" /></g></g><g stroke-width="0.8pt"><path style="fill:none" d="M 412.44 0 L 418.9 0" /><g stroke-dasharray="none" stroke-dashoffset="0.0pt" stroke-linejoin="miter" transform="matrix(1.0 0.0 0.0 1.0 418.9 0)"><path d="M 5.11 0 C 4.48 0.15 1.72 1.03 0 1.99 L 0 -1.99 C 1.72 -1.03 4.48 -0.15 5.11 0 Z" /></g></g><g stroke-width="0.8pt"><path style="fill:none" d="M 529.13 0 L 535.59 0" /><g stroke-dasharray="none" stroke-dashoffset="0.0pt" stroke-linejoin="miter" transform="matrix(1.0 0.0 0.0 1.0 535.59 0)"><path d="M 5.11 0 C 4.48 0.15 1.72 1.03 0 1.99 L 0 -1.99 C 1.72 -1.03 4.48 -0.15 5.11 0 Z" /></g></g></g></svg>