<svg id="S1.F1.pic1" class="ltx_picture ltx_centering" height="155.49" overflow="visible" version="1.1" viewbox="0 0 615.22 155.49" width="615.22"><g style="--ltx-stroke-color:#000000;" stroke="#000000" transform="translate(0,155.49) matrix(1 0 0 -1 0 0) translate(38.23,0) translate(0,76.33)"><g style="--ltx-fill-color:#B8B8B8;" fill="#B8B8B8" stroke-width="1.2pt"><path d="M 34.63 12.8 L -34.63 12.8 C -36.16 12.8 -37.4 11.56 -37.4 10.03 L -37.4 -10.03 C -37.4 -11.56 -36.16 -12.8 -34.63 -12.8 L 34.63 -12.8 C 36.16 -12.8 37.4 -11.56 37.4 -10.03 L 37.4 10.03 C 37.4 11.56 36.16 12.8 34.63 12.8 Z M -37.4 -12.8" /></g><g style="--ltx-stroke-color:#000000;--ltx-fill-color:#000000;" fill="#000000" stroke="#000000" stroke-width="1.2pt" transform="matrix(1.0 0.0 0.0 1.0 -9.37 -2.04)"><foreignobject style="--ltx-fo-width:1.36em;--ltx-fo-height:0.44em;--ltx-fo-depth:0.15em;font-size:10pt;" height="8.23" overflow="visible" transform="matrix(1 0 0 -1 0 6.15)" width="18.75"><span class="ltx_foreignobject_container"><span class="ltx_foreignobject_content"><math id="S1.F1.pic1.m1" class="ltx_Math" alttext="\mathbf{s}_{\text{ttl}}" display="inline" intent=":literal"><semantics><msub><mi>𝐬</mi><mtext>ttl</mtext></msub><annotation encoding="application/x-tex">\mathbf{s}_{\text{ttl}}</annotation></semantics></math></span></span></foreignobject></g><g style="--ltx-fill-color:#000000;" fill="#000000"><g stroke-width="0.4pt"><g style="--ltx-fill-color:#FFFFFF;" fill="#FFFFFF"><path d="M 130.23 12.8 L 60.96 12.8 C 59.43 12.8 58.19 11.56 58.19 10.03 L 58.19 -10.03 C 58.19 -11.56 59.43 -12.8 60.96 -12.8 L 130.23 -12.8 C 131.76 -12.8 133 -11.56 133 -10.03 L 133 10.03 C 133 11.56 131.76 12.8 130.23 12.8 Z M 58.19 -12.8" /></g><g style="--ltx-stroke-color:#000000;--ltx-fill-color:#000000;" fill="#000000" stroke="#000000" transform="matrix(1.0 0.0 0.0 1.0 72.32 -9.53)"><g class="ltx_tikzmatrix" transform="matrix(1 0 0 -1 0 19.06)"><g class="ltx_tikzmatrix_row" transform="matrix(1 0 0 1 0 9.46)"><g class="ltx_tikzmatrix_col ltx_nopad_r" transform="matrix(1 0 0 -1 9.44 0)"><foreignobject style="--ltx-fo-width:2.08em;--ltx-fo-height:0.68em;--ltx-fo-depth:0em;font-size:10pt;" height="9.46" overflow="visible" transform="matrix(1 0 0 -1 0 9.46)" width="28.83"><span class="ltx_foreignobject_container"><span class="ltx_foreignobject_content">Text</span></span></foreignobject></g></g><g class="ltx_tikzmatrix_row" transform="matrix(1 0 0 1 0 19.07)"><g class="ltx_tikzmatrix_col ltx_nopad_r" transform="matrix(1 0 0 -1 0 0)"><foreignobject style="--ltx-fo-width:3.34em;--ltx-fo-height:0.69em;--ltx-fo-depth:0em;font-size:10pt;" height="9.61" overflow="visible" transform="matrix(1 0 0 -1 0 9.61)" width="46.16"><span class="ltx_foreignobject_container"><span class="ltx_foreignobject_content">encoder</span></span></foreignobject></g></g></g></g><g style="--ltx-fill-color:#FFFFFF;" fill="#FFFFFF"><path d="M 217.4 12.8 L 148.13 12.8 C 146.6 12.8 145.36 11.56 145.36 10.03 L 145.36 -10.03 C 145.36 -11.56 146.6 -12.8 148.13 -12.8 L 217.4 -12.8 C 218.93 -12.8 220.16 -11.56 220.16 -10.03 L 220.16 10.03 C 220.16 11.56 218.93 12.8 217.4 12.8 Z M 145.36 -12.8" /></g><g style="--ltx-stroke-color:#000000;--ltx-fill-color:#000000;" fill="#000000" stroke="#000000" transform="matrix(1.0 0.0 0.0 1.0 154.26 -9.35)"><g class="ltx_tikzmatrix" transform="matrix(1 0 0 -1 0 18.7)"><g class="ltx_tikzmatrix_row" transform="matrix(1 0 0 1 0 9.46)"><g class="ltx_tikzmatrix_col ltx_nopad_r" transform="matrix(1 0 0 -1 8.88 0)"><foreignobject style="--ltx-fo-width:2.92em;--ltx-fo-height:0.68em;--ltx-fo-depth:0em;font-size:10pt;" height="9.46" overflow="visible" transform="matrix(1 0 0 -1 0 9.46)" width="40.4"><span class="ltx_foreignobject_container"><span class="ltx_foreignobject_content">Vector</span></span></foreignobject></g></g><g class="ltx_tikzmatrix_row" transform="matrix(1 0 0 1 0 18.7)"><g class="ltx_tikzmatrix_col ltx_nopad_r" transform="matrix(1 0 0 -1 0 0)"><foreignobject style="--ltx-fo-width:4.12em;--ltx-fo-height:0.67em;--ltx-fo-depth:0em;font-size:10pt;" height="9.24" overflow="visible" transform="matrix(1 0 0 -1 0 9.24)" width="57"><span class="ltx_foreignobject_container"><span class="ltx_foreignobject_content">estimator</span></span></foreignobject></g></g></g></g><g style="--ltx-fill-color:#FFFFFF;" fill="#FFFFFF"><path d="M 304.56 12.8 L 235.3 12.8 C 233.77 12.8 232.53 11.56 232.53 10.03 L 232.53 -10.03 C 232.53 -11.56 233.77 -12.8 235.3 -12.8 L 304.56 -12.8 C 306.09 -12.8 307.33 -11.56 307.33 -10.03 L 307.33 10.03 C 307.33 11.56 306.09 12.8 304.56 12.8 Z M 232.53 -12.8" /></g><g style="--ltx-stroke-color:#000000;--ltx-fill-color:#000000;" fill="#000000" stroke="#000000" transform="matrix(1.0 0.0 0.0 1.0 245.31 -4.8)"><foreignobject style="--ltx-fo-width:3.59em;--ltx-fo-height:0.69em;--ltx-fo-depth:0em;font-size:10pt;" height="9.61" overflow="visible" transform="matrix(1 0 0 -1 0 9.61)" width="49.62"><span class="ltx_foreignobject_container"><span class="ltx_foreignobject_content">Vocoder</span></span></foreignobject></g><g style="--ltx-fill-color:#E6E6E6;" fill="#E6E6E6"><path d="M 391.73 12.8 L 322.46 12.8 C 320.94 12.8 319.7 11.56 319.7 10.03 L 319.7 -10.03 C 319.7 -11.56 320.94 -12.8 322.46 -12.8 L 391.73 -12.8 C 393.26 -12.8 394.5 -11.56 394.5 -10.03 L 394.5 10.03 C 394.5 11.56 393.26 12.8 391.73 12.8 Z M 319.7 -12.8" /></g><g style="--ltx-stroke-color:#000000;--ltx-fill-color:#000000;" fill="#000000" stroke="#000000" transform="matrix(1.0 0.0 0.0 1.0 325.9 -9.61)"><g class="ltx_tikzmatrix" transform="matrix(1 0 0 -1 0 19.22)"><g class="ltx_tikzmatrix_row" transform="matrix(1 0 0 1 0 9.61)"><g class="ltx_tikzmatrix_col ltx_nopad_r" transform="matrix(1 0 0 -1 0 0)"><foreignobject style="--ltx-fo-width:4.51em;--ltx-fo-height:0.69em;--ltx-fo-depth:0em;font-size:10pt;" height="9.61" overflow="visible" transform="matrix(1 0 0 -1 0 9.61)" width="62.4"><span class="ltx_foreignobject_container"><span class="ltx_foreignobject_content">Generated</span></span></foreignobject></g></g><g class="ltx_tikzmatrix_row" transform="matrix(1 0 0 1 0 19.22)"><g class="ltx_tikzmatrix_col ltx_nopad_r" transform="matrix(1 0 0 -1 14.67 0)"><foreignobject style="--ltx-fo-width:2.39em;--ltx-fo-height:0.69em;--ltx-fo-depth:0em;font-size:10pt;" height="9.61" overflow="visible" transform="matrix(1 0 0 -1 0 9.61)" width="33.06"><span class="ltx_foreignobject_container"><span class="ltx_foreignobject_content">audio</span></span></foreignobject></g></g></g></g><g style="--ltx-fill-color:#E6E6E6;" fill="#E6E6E6"><path d="M 486.77 12.8 L 417.51 12.8 C 415.98 12.8 414.74 11.56 414.74 10.03 L 414.74 -10.03 C 414.74 -11.56 415.98 -12.8 417.51 -12.8 L 486.77 -12.8 C 488.3 -12.8 489.54 -11.56 489.54 -10.03 L 489.54 10.03 C 489.54 11.56 488.3 12.8 486.77 12.8 Z M 414.74 -12.8" /></g><g style="--ltx-stroke-color:#000000;--ltx-fill-color:#000000;" fill="#000000" stroke="#000000" transform="matrix(1.0 0.0 0.0 1.0 428.02 -8.19)"><g class="ltx_tikzmatrix" transform="matrix(1 0 0 -1 0 21.75)"><g class="ltx_tikzmatrix_row" transform="matrix(1 0 0 1 0 9.46)"><g class="ltx_tikzmatrix_col ltx_nopad_r" transform="matrix(1 0 0 -1 0 0)"><foreignobject style="--ltx-fo-width:3.6em;--ltx-fo-height:0.68em;--ltx-fo-depth:0em;font-size:10pt;" height="9.46" overflow="visible" transform="matrix(1 0 0 -1 0 9.46)" width="49.78"><span class="ltx_foreignobject_container"><span class="ltx_foreignobject_content">WavLM</span></span></foreignobject></g></g><g class="ltx_tikzmatrix_row" transform="matrix(1 0 0 1 0 19.07)"><g class="ltx_tikzmatrix_col ltx_nopad_r" transform="matrix(1 0 0 -1 3.92 0)"><foreignobject style="--ltx-fo-width:2.98em;--ltx-fo-height:0.69em;--ltx-fo-depth:0.19em;font-size:10pt;" height="12.3" overflow="visible" transform="matrix(1 0 0 -1 0 9.61)" width="41.17"><span class="ltx_foreignobject_container"><span class="ltx_foreignobject_content">layer 4</span></span></foreignobject></g></g></g></g><g style="--ltx-fill-color:#FFFFFF;" fill="#FFFFFF"><path d="M 573.94 12.8 L 504.67 12.8 C 503.14 12.8 501.91 11.56 501.91 10.03 L 501.91 -10.03 C 501.91 -11.56 503.14 -12.8 504.67 -12.8 L 573.94 -12.8 C 575.47 -12.8 576.71 -11.56 576.71 -10.03 L 576.71 10.03 C 576.71 11.56 575.47 12.8 573.94 12.8 Z M 501.91 -12.8" /></g><g style="--ltx-stroke-color:#000000;--ltx-fill-color:#000000;" fill="#000000" stroke="#000000" transform="matrix(1.0 0.0 0.0 1.0 519.56 -3.46)"><foreignobject style="--ltx-fo-width:2.85em;--ltx-fo-height:0.75em;--ltx-fo-depth:0.25em;font-size:10pt;" height="13.84" overflow="visible" transform="matrix(1 0 0 -1 0 10.38)" width="39.5"><span class="ltx_foreignobject_container"><span class="ltx_foreignobject_content"><math id="S1.F1.pic1.m2" class="ltx_Math" alttext="\mathcal{L}(\boldsymbol{\mu},\boldsymbol{\sigma})" display="inline" intent=":literal"><semantics><mrow><mi class="ltx_font_mathcaligraphic">ℒ</mi><mo>⁡</mo><mrow><mo stretchy="false">(</mo><mi>𝝁</mi><mo>,</mo><mi>𝝈</mi><mo stretchy="false">)</mo></mrow></mrow><annotation encoding="application/x-tex">\mathcal{L}(\boldsymbol{\mu},\boldsymbol{\sigma})</annotation></semantics></math></span></span></foreignobject></g><g style="--ltx-fill-color:#E6E6E6;" fill="#E6E6E6"><path d="M 491.96 46.81 L 412.32 46.81 C 410.79 46.81 409.56 45.57 409.56 44.05 L 409.56 23.99 C 409.56 22.46 410.79 21.22 412.32 21.22 L 491.96 21.22 C 493.49 21.22 494.72 22.46 494.72 23.99 L 494.72 44.05 C 494.72 45.57 493.49 46.81 491.96 46.81 Z M 409.56 21.22" /></g><g style="--ltx-stroke-color:#000000;--ltx-fill-color:#000000;" fill="#000000" stroke="#000000" transform="matrix(1.0 0.0 0.0 1.0 413.49 30.56)"><foreignobject style="--ltx-fo-width:5.67em;--ltx-fo-height:0.69em;--ltx-fo-depth:0.19em;font-size:10pt;" height="12.3" overflow="visible" transform="matrix(1 0 0 -1 0 9.61)" width="78.45"><span class="ltx_foreignobject_container"><span class="ltx_foreignobject_content">Target audio</span></span></foreignobject></g><g style="--ltx-fill-color:#FFFFFF;" fill="#FFFFFF"><path d="M 306.33 69.87 L 233.53 69.87 C 232.01 69.87 230.77 68.64 230.77 67.11 L 230.77 45.64 C 230.77 44.12 232.01 42.88 233.53 42.88 L 306.33 42.88 C 307.86 42.88 309.09 44.12 309.09 45.64 L 309.09 67.11 C 309.09 68.64 307.86 69.87 306.33 69.87 Z M 230.77 42.88" /></g><g style="--ltx-stroke-color:#000000;--ltx-fill-color:#000000;" fill="#000000" stroke="#000000" transform="matrix(1.0 0.0 0.0 1.0 234.7 46.95)"><g class="ltx_tikzmatrix" transform="matrix(1 0 0 -1 0 24.23)"><g class="ltx_tikzmatrix_row" transform="matrix(1 0 0 1 0 9.61)"><g class="ltx_tikzmatrix_col ltx_nopad_r" transform="matrix(1 0 0 -1 0 0)"><foreignobject style="--ltx-fo-width:5.09em;--ltx-fo-height:0.69em;--ltx-fo-depth:0.19em;font-size:10pt;" height="12.3" overflow="visible" transform="matrix(1 0 0 -1 0 9.61)" width="70.45"><span class="ltx_foreignobject_container"><span class="ltx_foreignobject_content">Unit-sphere</span></span></foreignobject></g></g><g class="ltx_tikzmatrix_row" transform="matrix(1 0 0 1 0 21.54)"><g class="ltx_tikzmatrix_col ltx_nopad_r" transform="matrix(1 0 0 -1 4.65 0)"><foreignobject style="--ltx-fo-width:4.36em;--ltx-fo-height:0.67em;--ltx-fo-depth:0.19em;font-size:10pt;" height="11.93" overflow="visible" transform="matrix(1 0 0 -1 0 9.24)" width="60.38"><span class="ltx_foreignobject_container"><span class="ltx_foreignobject_content">projection</span></span></foreignobject></g></g></g></g><g style="--ltx-fill-color:#B8B8B8;" fill="#B8B8B8" stroke-width="1.2pt"><path d="M 34.63 -42.01 L -34.63 -42.01 C -36.16 -42.01 -37.4 -43.25 -37.4 -44.78 L -37.4 -64.84 C -37.4 -66.37 -36.16 -67.61 -34.63 -67.61 L 34.63 -67.61 C 36.16 -67.61 37.4 -66.37 37.4 -64.84 L 37.4 -44.78 C 37.4 -43.25 36.16 -42.01 34.63 -42.01 Z M -37.4 -67.61" /></g><g style="--ltx-stroke-color:#000000;--ltx-fill-color:#000000;" fill="#000000" stroke="#000000" stroke-width="1.2pt" transform="matrix(1.0 0.0 0.0 1.0 -9.6 -55.91)"><foreignobject style="--ltx-fo-width:1.39em;--ltx-fo-height:0.44em;--ltx-fo-depth:0.29em;font-size:10pt;" height="10.11" overflow="visible" transform="matrix(1 0 0 -1 0 6.15)" width="19.19"><span class="ltx_foreignobject_container"><span class="ltx_foreignobject_content"><math id="S1.F1.pic1.m3" class="ltx_Math" alttext="\mathbf{s}_{\text{dp}}" display="inline" intent=":literal"><semantics><msub><mi>𝐬</mi><mtext>dp</mtext></msub><annotation encoding="application/x-tex">\mathbf{s}_{\text{dp}}</annotation></semantics></math></span></span></foreignobject></g><g style="--ltx-fill-color:#FFFFFF;" fill="#FFFFFF"><path d="M 130.23 -42.01 L 60.96 -42.01 C 59.43 -42.01 58.19 -43.25 58.19 -44.78 L 58.19 -64.84 C 58.19 -66.37 59.43 -67.61 60.96 -67.61 L 130.23 -67.61 C 131.76 -67.61 133 -66.37 133 -64.84 L 133 -44.78 C 133 -43.25 131.76 -42.01 130.23 -42.01 Z M 58.19 -67.61" /></g><g style="--ltx-stroke-color:#000000;--ltx-fill-color:#000000;" fill="#000000" stroke="#000000" transform="matrix(1.0 0.0 0.0 1.0 68.27 -63)"><g class="ltx_tikzmatrix" transform="matrix(1 0 0 -1 0 21.75)"><g class="ltx_tikzmatrix_row" transform="matrix(1 0 0 1 0 9.46)"><g class="ltx_tikzmatrix_col ltx_nopad_r" transform="matrix(1 0 0 -1 0.12 0)"><foreignobject style="--ltx-fo-width:3.93em;--ltx-fo-height:0.68em;--ltx-fo-depth:0em;font-size:10pt;" height="9.46" overflow="visible" transform="matrix(1 0 0 -1 0 9.46)" width="54.43"><span class="ltx_foreignobject_container"><span class="ltx_foreignobject_content">Duration</span></span></foreignobject></g></g><g class="ltx_tikzmatrix_row" transform="matrix(1 0 0 1 0 19.07)"><g class="ltx_tikzmatrix_col ltx_nopad_r" transform="matrix(1 0 0 -1 0 0)"><foreignobject style="--ltx-fo-width:3.95em;--ltx-fo-height:0.69em;--ltx-fo-depth:0.19em;font-size:10pt;" height="12.3" overflow="visible" transform="matrix(1 0 0 -1 0 9.61)" width="54.66"><span class="ltx_foreignobject_container"><span class="ltx_foreignobject_content">predictor</span></span></foreignobject></g></g></g></g><g style="--ltx-fill-color:#FFFFFF;" fill="#FFFFFF"><path d="M 399.8 -40.91 L 314.4 -40.91 C 312.87 -40.91 311.63 -42.15 311.63 -43.68 L 311.63 -63.73 C 311.63 -65.26 312.87 -66.5 314.4 -66.5 L 399.8 -66.5 C 401.33 -66.5 402.57 -65.26 402.57 -63.73 L 402.57 -43.68 C 402.57 -42.15 401.33 -40.91 399.8 -40.91 Z M 311.63 -66.5" /></g><g style="--ltx-stroke-color:#000000;--ltx-fill-color:#000000;" fill="#000000" stroke="#000000" transform="matrix(1.0 0.0 0.0 1.0 315.57 -64.66)"><g class="ltx_tikzmatrix" transform="matrix(1 0 0 -1 0 21.91)"><g class="ltx_tikzmatrix_row" transform="matrix(1 0 0 1 0 9.61)"><g class="ltx_tikzmatrix_col ltx_nopad_r" transform="matrix(1 0 0 -1 0 0)"><foreignobject style="--ltx-fo-width:5.98em;--ltx-fo-height:0.69em;--ltx-fo-depth:0.19em;font-size:10pt;" height="12.3" overflow="visible" transform="matrix(1 0 0 -1 0 9.61)" width="82.68"><span class="ltx_foreignobject_container"><span class="ltx_foreignobject_content">Speaking-rate</span></span></foreignobject></g></g><g class="ltx_tikzmatrix_row" transform="matrix(1 0 0 1 0 21.91)"><g class="ltx_tikzmatrix_col ltx_nopad_r" transform="matrix(1 0 0 -1 22.89 0)"><foreignobject style="--ltx-fo-width:2.72em;--ltx-fo-height:0.69em;--ltx-fo-depth:0em;font-size:10pt;" height="9.61" overflow="visible" transform="matrix(1 0 0 -1 0 9.61)" width="37.67"><span class="ltx_foreignobject_container"><span class="ltx_foreignobject_content">match</span></span></foreignobject></g></g></g></g><g stroke-dasharray="3.0pt,3.0pt" stroke-dashoffset="0.0pt"><path style="fill:none" d="M 313.3 22.91 L 52.23 22.91 C 49.93 22.91 48.07 21.06 48.07 18.76 L 48.07 -18.76 C 48.07 -21.06 49.93 -22.91 52.23 -22.91 L 313.3 -22.91 C 315.59 -22.91 317.45 -21.06 317.45 -18.76 L 317.45 18.76 C 317.45 21.06 315.59 22.91 313.3 22.91 Z M 48.07 -22.91" /></g><g style="--ltx-stroke-color:#000000;--ltx-fill-color:#000000;" fill="#000000" stroke="#000000" stroke-dasharray="3.0pt,3.0pt" stroke-dashoffset="0.0pt" transform="matrix(1.0 0.0 0.0 1.0 57.92 0)"><foreignobject style="--ltx-fo-width:18.05em;--ltx-fo-height:0em;--ltx-fo-depth:0em;font-size:10pt;" height="0" overflow="visible" transform="matrix(1 0 0 -1 0 0)" width="249.76"><span class="ltx_foreignobject_container"><span class="ltx_foreignobject_content">
<span id="S1.F1.pic1.1" class="ltx_inline-block ltx_minipage ltx_align_top" style="width:18.05em;">
<span id="S1.F1.pic1.1.1" class="ltx_p"></span>
</span></span></span></foreignobject></g><g style="--ltx-stroke-color:#000000;--ltx-fill-color:#000000;" fill="#000000" stroke="#000000" transform="matrix(1.0 0.0 0.0 1.0 120.57 32.74)"><foreignobject style="--ltx-fo-width:9.04em;--ltx-fo-height:0.69em;--ltx-fo-depth:0.19em;font-size:10pt;" height="12.3" overflow="visible" transform="matrix(1 0 0 -1 0 9.61)" width="125.15"><span class="ltx_foreignobject_container"><span class="ltx_foreignobject_content"><span id="S1.F1.pic1.2" class="ltx_text">Frozen TTS pipeline</span></span></span></foreignobject></g></g><g stroke-width="0.8pt"><path style="fill:none" d="M 38.23 0 L 52.8 0" /><g stroke-dasharray="none" stroke-dashoffset="0.0pt" stroke-linejoin="miter" transform="matrix(1.0 0.0 0.0 1.0 50.04 0)"><path d="M 6.4 0 L 1.79 1.71 L 3.04 0 L 1.79 -1.71 Z" /></g></g><g stroke-width="0.8pt"><path style="fill:none" d="M 133.27 0 L 139.97 0" /><g stroke-dasharray="none" stroke-dashoffset="0.0pt" stroke-linejoin="miter" transform="matrix(1.0 0.0 0.0 1.0 137.21 0)"><path d="M 6.4 0 L 1.79 1.71 L 3.04 0 L 1.79 -1.71 Z" /></g></g><g stroke-width="0.8pt"><path style="fill:none" d="M 220.44 0 L 227.14 0" /><g stroke-dasharray="none" stroke-dashoffset="0.0pt" stroke-linejoin="miter" transform="matrix(1.0 0.0 0.0 1.0 224.38 0)"><path d="M 6.4 0 L 1.79 1.71 L 3.04 0 L 1.79 -1.71 Z" /></g></g><g stroke-width="0.8pt"><path style="fill:none" d="M 307.61 0 L 314.31 0" /><g stroke-dasharray="none" stroke-dashoffset="0.0pt" stroke-linejoin="miter" transform="matrix(1.0 0.0 0.0 1.0 311.55 0)"><path d="M 6.4 0 L 1.79 1.71 L 3.04 0 L 1.79 -1.71 Z" /></g></g><g stroke-width="0.8pt"><path style="fill:none" d="M 394.78 0 L 409.35 0" /><g stroke-dasharray="none" stroke-dashoffset="0.0pt" stroke-linejoin="miter" transform="matrix(1.0 0.0 0.0 1.0 406.59 0)"><path d="M 6.4 0 L 1.79 1.71 L 3.04 0 L 1.79 -1.71 Z" /></g></g><g stroke-width="0.8pt"><path style="fill:none" d="M 452.14 20.95 L 452.14 18.18" /><g stroke-dasharray="none" stroke-dashoffset="0.0pt" stroke-linejoin="miter" transform="matrix(0.0 -1.0 1.0 0.0 452.14 20.95)"><path d="M 6.4 0 L 1.79 1.71 L 3.04 0 L 1.79 -1.71 Z" /></g></g><g stroke-width="0.8pt"><path style="fill:none" d="M 489.82 0 L 496.52 0" /><g stroke-dasharray="none" stroke-dashoffset="0.0pt" stroke-linejoin="miter" transform="matrix(1.0 0.0 0.0 1.0 493.76 0)"><path d="M 6.4 0 L 1.79 1.71 L 3.04 0 L 1.79 -1.71 Z" /></g></g><g stroke-width="0.8pt"><g stroke-dasharray="3.0pt,3.0pt" stroke-dashoffset="0.0pt"><path style="fill:none" d="M 539.31 13.07 L 539.31 56.38 L 314.48 56.38" /></g><g stroke-dasharray="none" stroke-dashoffset="0.0pt" stroke-linejoin="miter" transform="matrix(-1.0 0.0 0.0 -1.0 317.24 56.38)"><path d="M 6.4 0 L 1.79 1.71 L 3.04 0 L 1.79 -1.71 Z" /></g></g><g stroke-dasharray="3.0pt,3.0pt" stroke-dashoffset="0.0pt" stroke-width="0.8pt"><path style="fill:none" d="M 230.49 56.38 L 0 56.38 L 0 18.74" /><g stroke-dasharray="none" stroke-dashoffset="0.0pt" stroke-linejoin="miter" transform="matrix(0.0 -1.0 1.0 0.0 0 21.5)"><path d="M 6.4 0 L 1.79 1.71 L 3.04 0 L 1.79 -1.71 Z" /></g><g style="--ltx-stroke-color:#000000;--ltx-fill-color:#000000;" fill="#000000" stroke="#000000" transform="matrix(1.0 0.0 0.0 1.0 96.84 65.08)"><foreignobject style="--ltx-fo-width:2.66em;--ltx-fo-height:0.68em;--ltx-fo-depth:0.26em;font-size:10pt;" height="13" overflow="visible" transform="matrix(1 0 0 -1 0 9.46)" width="36.81"><span class="ltx_foreignobject_container"><span class="ltx_foreignobject_content"><math id="S1.F1.pic1.m4" class="ltx_Math" alttext="\nabla_{\mathbf{s}_{\text{ttl}}}\mathcal{L}" display="inline" intent=":literal"><semantics><mrow><msub><mo>∇</mo><msub><mi>𝐬</mi><mtext>ttl</mtext></msub></msub><mi class="ltx_font_mathcaligraphic">ℒ</mi></mrow><annotation encoding="application/x-tex">\nabla_{\mathbf{s}_{\text{ttl}}}\mathcal{L}</annotation></semantics></math></span></span></foreignobject></g></g><g stroke-width="0.8pt"><path style="fill:none" d="M 38.23 -54.81 L 52.8 -54.81" /><g stroke-dasharray="none" stroke-dashoffset="0.0pt" stroke-linejoin="miter" transform="matrix(1.0 0.0 0.0 1.0 50.04 -54.81)"><path d="M 6.4 0 L 1.79 1.71 L 3.04 0 L 1.79 -1.71 Z" /></g></g><g stroke-width="0.8pt"><path style="fill:none" d="M 95.6 -41.74 L 95.6 -31.9 L 182.76 -31.9 L 182.76 -18.18" /><g stroke-dasharray="none" stroke-dashoffset="0.0pt" stroke-linejoin="miter" transform="matrix(0.0 1.0 -1.0 0.0 182.76 -20.95)"><path d="M 6.4 0 L 1.79 1.71 L 3.04 0 L 1.79 -1.71 Z" /></g><g style="--ltx-stroke-color:#000000;--ltx-fill-color:#000000;" fill="#000000" stroke="#000000" transform="matrix(1.0 0.0 0.0 1.0 144.13 -46.67)"><foreignobject style="--ltx-fo-width:5.61em;--ltx-fo-height:0.69em;--ltx-fo-depth:0.19em;font-size:10pt;" height="12.3" overflow="visible" transform="matrix(1 0 0 -1 0 9.61)" width="77.64"><span class="ltx_foreignobject_container"><span class="ltx_foreignobject_content"><span id="S1.F1.pic1.3" class="ltx_text">latent length</span></span></span></foreignobject></g></g><g stroke-width="0.8pt"><path style="fill:none" d="M 357.1 -13.07 L 357.1 -35.52" /><g stroke-dasharray="none" stroke-dashoffset="0.0pt" stroke-linejoin="miter" transform="matrix(0.0 -1.0 1.0 0.0 357.1 -32.76)"><path d="M 6.4 0 L 1.79 1.71 L 3.04 0 L 1.79 -1.71 Z" /></g></g><g stroke-dasharray="3.0pt,3.0pt" stroke-dashoffset="0.0pt" stroke-width="0.8pt"><path style="fill:none" d="M 311.35 -53.7 L 138.39 -54.78" /><g stroke-dasharray="none" stroke-dashoffset="0.0pt" stroke-linejoin="miter" transform="matrix(-0.99998 -0.00623 0.00623 -0.99998 141.15 -54.76)"><path d="M 6.4 0 L 1.79 1.71 L 3.04 0 L 1.79 -1.71 Z" /></g><g style="--ltx-stroke-color:#000000;--ltx-fill-color:#000000;" fill="#000000" stroke="#000000" transform="matrix(1.0 0.0 0.0 1.0 209.7 -69.03)"><foreignobject style="--ltx-fo-width:1.31em;--ltx-fo-height:0.69em;--ltx-fo-depth:0em;font-size:10pt;" height="9.61" overflow="visible" transform="matrix(1 0 0 -1 0 9.61)" width="18.07"><span class="ltx_foreignobject_container"><span class="ltx_foreignobject_content"><span id="S1.F1.pic1.4" class="ltx_text">fit <math id="S1.F1.pic1.m5" class="ltx_Math" alttext="\rho" display="inline" intent=":literal"><semantics><mi>ρ</mi><annotation encoding="application/x-tex">\rho</annotation></semantics></math></span></span></span></foreignobject></g></g></g></g></svg>