<svg id="S3.SS6.p9.pic1" class="ltx_picture" height="58.37" overflow="visible" version="1.1" viewbox="0 0 318.02 58.37" width="318.02"><g style="--ltx-stroke-color:#000000;--ltx-fill-color:#000000;" fill="#000000" stroke="#000000" stroke-width="0.4pt" transform="translate(0,58.37) matrix(1 0 0 -1 0 0) translate(159.01,0) translate(0,29.19)"><g transform="matrix(1.0 0.0 0.0 1.0 -154.4 -20.11)"><g class="ltx_tikzmatrix" transform="matrix(1 0 0 -1 0 49.15)"><g class="ltx_tikzmatrix_row" transform="matrix(1 0 0 1 0 11.92)"><g style="--ltx-stroke-color:#000000;--ltx-fill-color:#000000;--ltx-fg-color:#000000;" class="ltx_tikzmatrix_col ltx_nopad_l ltx_nopad_r" color="#000000" fill="#000000" stroke="#000000" transform="matrix(1 0 0 -1 10.38 0) translate(10.67,0) matrix(1.0 0.0 0.0 1.0 -7.69 0)"><foreignobject style="--ltx-fg-color:#000000;--ltx-fo-width:1.11em;--ltx-fo-height:0.68em;--ltx-fo-depth:0em;font-size:10pt;" color="#000000" height="9.46" overflow="visible" transform="matrix(1 0 0 -1 0 9.46)" width="15.37"><span class="ltx_foreignobject_container"><span class="ltx_foreignobject_content"><span id="S3.SS6.p9.pic1.1" class="ltx_text" style="--ltx-fg-color:#000000;">O </span></span></span></foreignobject></g><g style="--ltx-stroke-color:#000000;--ltx-fill-color:#000000;--ltx-fg-color:#000000;" class="ltx_tikzmatrix_col ltx_nopad_l ltx_nopad_r" color="#000000" fill="#000000" stroke="#000000" transform="matrix(1 0 0 -1 42.09 0) translate(24.18,0) matrix(1.0 0.0 0.0 1.0 -21.2 0)"><foreignobject style="--ltx-fg-color:#000000;--ltx-fo-width:3.06em;--ltx-fo-height:0.69em;--ltx-fo-depth:0em;font-size:10pt;" color="#000000" height="9.61" overflow="visible" transform="matrix(1 0 0 -1 0 9.61)" width="42.4"><span class="ltx_foreignobject_container"><span class="ltx_foreignobject_content"><span id="S3.SS6.p9.pic1.2" class="ltx_text" style="--ltx-fg-color:#000000;">horror </span></span></span></foreignobject></g><g style="--ltx-stroke-color:#000000;--ltx-fill-color:#000000;--ltx-fg-color:#000000;" class="ltx_tikzmatrix_col ltx_nopad_l ltx_nopad_r" color="#000000" fill="#000000" stroke="#000000" transform="matrix(1 0 0 -1 104.28 0) translate(7.21,0) matrix(1.0 0.0 0.0 1.0 -4.23 0)"><foreignobject style="--ltx-fg-color:#000000;--ltx-fo-width:0.61em;--ltx-fo-height:0.11em;--ltx-fo-depth:0.19em;font-size:10pt;" color="#000000" height="4.15" overflow="visible" transform="matrix(1 0 0 -1 0 1.46)" width="8.46"><span class="ltx_foreignobject_container"><span class="ltx_foreignobject_content"><span id="S3.SS6.p9.pic1.3" class="ltx_text" style="--ltx-fg-color:#000000;">, </span></span></span></foreignobject></g><g style="--ltx-stroke-color:#000000;--ltx-fill-color:#000000;--ltx-fg-color:#000000;" class="ltx_tikzmatrix_col ltx_nopad_l ltx_nopad_r" color="#000000" fill="#000000" stroke="#000000" transform="matrix(1 0 0 -1 132.53 0) translate(24.18,0) matrix(1.0 0.0 0.0 1.0 -21.2 0)"><foreignobject style="--ltx-fg-color:#000000;--ltx-fo-width:3.06em;--ltx-fo-height:0.69em;--ltx-fo-depth:0em;font-size:10pt;" color="#000000" height="9.61" overflow="visible" transform="matrix(1 0 0 -1 0 9.61)" width="42.4"><span class="ltx_foreignobject_container"><span class="ltx_foreignobject_content"><span id="S3.SS6.p9.pic1.4" class="ltx_text" style="--ltx-fg-color:#000000;">horror </span></span></span></foreignobject></g><g style="--ltx-stroke-color:#000000;--ltx-fill-color:#000000;--ltx-fg-color:#000000;" class="ltx_tikzmatrix_col ltx_nopad_l ltx_nopad_r" color="#000000" fill="#000000" stroke="#000000" transform="matrix(1 0 0 -1 194.72 0) translate(7.21,0) matrix(1.0 0.0 0.0 1.0 -4.23 0)"><foreignobject style="--ltx-fg-color:#000000;--ltx-fo-width:0.61em;--ltx-fo-height:0.11em;--ltx-fo-depth:0.19em;font-size:10pt;" color="#000000" height="4.15" overflow="visible" transform="matrix(1 0 0 -1 0 1.46)" width="8.46"><span class="ltx_foreignobject_container"><span class="ltx_foreignobject_content"><span id="S3.SS6.p9.pic1.5" class="ltx_text" style="--ltx-fg-color:#000000;">, </span></span></span></foreignobject></g><g style="--ltx-stroke-color:#000000;--ltx-fill-color:#000000;--ltx-fg-color:#000000;" class="ltx_tikzmatrix_col ltx_nopad_l ltx_nopad_r" color="#000000" fill="#000000" stroke="#000000" transform="matrix(1 0 0 -1 222.97 0) translate(24.18,0) matrix(1.0 0.0 0.0 1.0 -21.2 0)"><foreignobject style="--ltx-fg-color:#000000;--ltx-fo-width:3.06em;--ltx-fo-height:0.69em;--ltx-fo-depth:0em;font-size:10pt;" color="#000000" height="9.61" overflow="visible" transform="matrix(1 0 0 -1 0 9.61)" width="42.4"><span class="ltx_foreignobject_container"><span class="ltx_foreignobject_content"><span id="S3.SS6.p9.pic1.6" class="ltx_text" style="--ltx-fg-color:#000000;">horror </span></span></span></foreignobject></g><g style="--ltx-stroke-color:#000000;--ltx-fill-color:#000000;--ltx-fg-color:#000000;" class="ltx_tikzmatrix_col ltx_nopad_l ltx_nopad_r" color="#000000" fill="#000000" stroke="#000000" transform="matrix(1 0 0 -1 285.16 0) translate(4.9,0) matrix(1.0 0.0 0.0 1.0 -1.92 0)"><foreignobject style="--ltx-fg-color:#000000;--ltx-fo-width:0.28em;--ltx-fo-height:0.11em;--ltx-fo-depth:0em;font-size:10pt;" color="#000000" height="1.46" overflow="visible" transform="matrix(1 0 0 -1 0 1.46)" width="3.84"><span class="ltx_foreignobject_container"><span class="ltx_foreignobject_content"><span id="S3.SS6.p9.pic1.7" class="ltx_text" style="--ltx-fg-color:#000000;">.</span></span></span></foreignobject></g></g><g class="ltx_tikzmatrix_row" transform="matrix(1 0 0 1 0 44.69)"><g style="--ltx-stroke-color:#000000;--ltx-fill-color:#000000;--ltx-fg-color:#000000;" class="ltx_tikzmatrix_col ltx_nopad_l ltx_nopad_r" color="#000000" fill="#000000" stroke="#000000" transform="matrix(1 0 0 -1 0 0) translate(21.04,0) matrix(1.0 0.0 0.0 1.0 -18.07 0)"><foreignobject style="--ltx-fg-color:#000000;--ltx-fo-width:2.61em;--ltx-fo-height:0.64em;--ltx-fo-depth:0em;font-size:10pt;" color="#000000" height="8.92" overflow="visible" transform="matrix(1 0 0 -1 0 8.92)" width="36.13"><span class="ltx_foreignobject_container"><span class="ltx_foreignobject_content"><span id="S3.SS6.p9.pic1.8" class="ltx_text" style="--ltx-fg-color:#000000;">13.18 </span></span></span></foreignobject></g><g style="--ltx-stroke-color:#000000;--ltx-fill-color:#000000;--ltx-fg-color:#000000;" class="ltx_tikzmatrix_col ltx_nopad_l ltx_nopad_r" color="#000000" fill="#000000" stroke="#000000" transform="matrix(1 0 0 -1 45.22 0) translate(21.04,0) matrix(1.0 0.0 0.0 1.0 -18.07 0)"><foreignobject style="--ltx-fg-color:#000000;--ltx-fo-width:2.61em;--ltx-fo-height:0.64em;--ltx-fo-depth:0em;font-size:10pt;" color="#000000" height="8.92" overflow="visible" transform="matrix(1 0 0 -1 0 8.92)" width="36.13"><span class="ltx_foreignobject_container"><span class="ltx_foreignobject_content"><span id="S3.SS6.p9.pic1.9" class="ltx_text" style="--ltx-fg-color:#000000;">14.18 </span></span></span></foreignobject></g><g style="--ltx-stroke-color:#000000;--ltx-fill-color:#000000;--ltx-fg-color:#000000;" class="ltx_tikzmatrix_col ltx_nopad_l ltx_nopad_r" color="#000000" fill="#000000" stroke="#000000" transform="matrix(1 0 0 -1 90.44 0) translate(21.04,0) matrix(1.0 0.0 0.0 1.0 -18.07 0)"><foreignobject style="--ltx-fg-color:#000000;--ltx-fo-width:2.61em;--ltx-fo-height:0.64em;--ltx-fo-depth:0em;font-size:10pt;" color="#000000" height="8.92" overflow="visible" transform="matrix(1 0 0 -1 0 8.92)" width="36.13"><span class="ltx_foreignobject_container"><span class="ltx_foreignobject_content"><span id="S3.SS6.p9.pic1.10" class="ltx_text" style="--ltx-fg-color:#000000;">14.18 </span></span></span></foreignobject></g><g style="--ltx-stroke-color:#000000;--ltx-fill-color:#000000;--ltx-fg-color:#000000;" class="ltx_tikzmatrix_col ltx_nopad_l ltx_nopad_r" color="#000000" fill="#000000" stroke="#000000" transform="matrix(1 0 0 -1 135.66 0) translate(21.04,0) matrix(1.0 0.0 0.0 1.0 -18.07 0)"><foreignobject style="--ltx-fg-color:#000000;--ltx-fo-width:2.61em;--ltx-fo-height:0.64em;--ltx-fo-depth:0em;font-size:10pt;" color="#000000" height="8.92" overflow="visible" transform="matrix(1 0 0 -1 0 8.92)" width="36.13"><span class="ltx_foreignobject_container"><span class="ltx_foreignobject_content"><span id="S3.SS6.p9.pic1.11" class="ltx_text" style="--ltx-fg-color:#000000;">16.18 </span></span></span></foreignobject></g><g style="--ltx-stroke-color:#000000;--ltx-fill-color:#000000;--ltx-fg-color:#000000;" class="ltx_tikzmatrix_col ltx_nopad_l ltx_nopad_r" color="#000000" fill="#000000" stroke="#000000" transform="matrix(1 0 0 -1 180.88 0) translate(21.04,0) matrix(1.0 0.0 0.0 1.0 -18.07 0)"><foreignobject style="--ltx-fg-color:#000000;--ltx-fo-width:2.61em;--ltx-fo-height:0.64em;--ltx-fo-depth:0em;font-size:10pt;" color="#000000" height="8.92" overflow="visible" transform="matrix(1 0 0 -1 0 8.92)" width="36.13"><span class="ltx_foreignobject_container"><span class="ltx_foreignobject_content"><span id="S3.SS6.p9.pic1.12" class="ltx_text" style="--ltx-fg-color:#000000;">16.18 </span></span></span></foreignobject></g><g style="--ltx-stroke-color:#000000;--ltx-fill-color:#000000;--ltx-fg-color:#000000;" class="ltx_tikzmatrix_col ltx_nopad_l ltx_nopad_r" color="#000000" fill="#000000" stroke="#000000" transform="matrix(1 0 0 -1 226.1 0) translate(21.04,0) matrix(1.0 0.0 0.0 1.0 -18.07 0)"><foreignobject style="--ltx-fg-color:#000000;--ltx-fo-width:2.61em;--ltx-fo-height:0.64em;--ltx-fo-depth:0em;font-size:10pt;" color="#000000" height="8.92" overflow="visible" transform="matrix(1 0 0 -1 0 8.92)" width="36.13"><span class="ltx_foreignobject_container"><span class="ltx_foreignobject_content"><span id="S3.SS6.p9.pic1.13" class="ltx_text" style="--ltx-fg-color:#000000;">16.18 </span></span></span></foreignobject></g><g style="--ltx-stroke-color:#000000;--ltx-fill-color:#000000;--ltx-fg-color:#000000;" class="ltx_tikzmatrix_col ltx_nopad_l ltx_nopad_r" color="#000000" fill="#000000" stroke="#000000" transform="matrix(1 0 0 -1 271.32 0) translate(18.74,0) matrix(1.0 0.0 0.0 1.0 -15.76 0)"><foreignobject style="--ltx-fg-color:#000000;--ltx-fo-width:2.28em;--ltx-fo-height:0.64em;--ltx-fo-depth:0em;font-size:10pt;" color="#000000" height="8.92" overflow="visible" transform="matrix(1 0 0 -1 0 8.92)" width="31.52"><span class="ltx_foreignobject_container"><span class="ltx_foreignobject_content"><span id="S3.SS6.p9.pic1.14" class="ltx_text" style="--ltx-fg-color:#000000;">16.18</span></span></span></foreignobject></g></g></g></g><path style="fill:none" d="M -133.35 1.96 L -133.35 -7.91" /><path style="fill:none" d="M -88.13 1.96 L -88.13 -7.91" /><path style="fill:none" d="M -42.91 1.96 L -42.91 -7.91" /><path style="fill:none" d="M 2.31 1.96 L 2.31 -7.91" /><path style="fill:none" d="M 47.53 1.96 L 47.53 -7.91" /><path style="fill:none" d="M 92.75 1.96 L 92.75 -7.91" /><path style="fill:none" d="M 135.66 1.96 L 135.66 -7.91" /></g></svg>