<svg id="A1.SS2.p3.pic1" class="ltx_picture" height="191.33" overflow="visible" version="1.1" viewbox="0 0 550 191.33" width="550"><g style="--ltx-stroke-color:#000000;--ltx-fill-color:#000000;" fill="#000000" stroke="#000000" stroke-width="0.4pt" transform="translate(0,191.33) matrix(1 0 0 -1 0 0)"><g style="--ltx-fill-color:#A6A6A6;" fill="#A6A6A6" fill-opacity="1.0"><path style="stroke:none" d="M 0 4.49 L 0 186.84 C 0 189.32 2.01 191.33 4.49 191.33 L 545.51 191.33 C 547.99 191.33 550 189.32 550 186.84 L 550 4.49 C 550 2.01 547.99 0 545.51 0 L 4.49 0 C 2.01 0 0 2.01 0 4.49 Z" /></g><g style="--ltx-fill-color:#FAFAFF;" fill="#FAFAFF" fill-opacity="1.0"><path style="stroke:none" d="M 0.55 4.49 L 0.55 170.05 L 549.45 170.05 L 549.45 4.49 C 549.45 2.32 547.68 0.55 545.51 0.55 L 4.49 0.55 C 2.32 0.55 0.55 2.32 0.55 4.49 Z" /></g><g style="--ltx-fill-color:#EBEBFF;" fill="#EBEBFF" fill-opacity="1.0"><path style="stroke:none" d="M 0.55 170.6 L 0.55 186.84 C 0.55 189.02 2.32 190.78 4.49 190.78 L 545.51 190.78 C 547.68 190.78 549.45 189.02 549.45 186.84 L 549.45 170.6 Z" /></g><g fill-opacity="1.0" transform="matrix(1.0 0.0 0.0 1.0 15.56 177.23)"><foreignobject style="--ltx-fo-width:32.61em;--ltx-fo-height:0.69em;--ltx-fo-depth:0.19em;font-size:10pt;" height="12.3" overflow="visible" transform="matrix(1 0 0 -1 0 9.61)" width="451.23"><span class="ltx_foreignobject_container"><span class="ltx_foreignobject_content">
<span id="A1.SS2.p3.pic1.1" class="ltx_inline-block ltx_minipage ltx_align_bottom" style="width:32.61em;">
<span id="A1.SS2.p3.pic1.1.1" class="ltx_p"><span id="A1.SS2.p3.pic1.1.1.1" class="ltx_text ltx_font_bold" style="--ltx-fg-color:#000000;">Speech-only</span></span>
</span></span></span></foreignobject></g><g fill-opacity="1.0" transform="matrix(1.0 0.0 0.0 1.0 15.56 15.48)"><foreignobject style="--ltx-fo-width:37.5em;--ltx-fo-height:10.29em;--ltx-fo-depth:0.19em;font-size:10pt;" height="145.02" overflow="visible" transform="matrix(1 0 0 -1 0 142.33)" width="518.89"><span class="ltx_foreignobject_container"><span class="ltx_foreignobject_content">
<span id="A1.SS2.p3.pic1.2" class="ltx_inline-block ltx_minipage ltx_align_bottom" style="width:37.5em;">
<span id="A1.SS2.p3.pic1.2.1" class="ltx_p ltx_align_left"><span id="A1.SS2.p3.pic1.2.1.1" class="ltx_text ltx_font_bold" style="--ltx-fg-color:#000000;">User:
<br class="ltx_break"><span id="A1.SS2.p3.pic1.2.1.1.1" class="ltx_text ltx_font_medium">The reference audio and the current audio are from the same speaker. Use the pronunciation patterns and accent in the reference audio to help transcribe the current audio.
<br class="ltx_break">Reference audio: &lt;history_audio&gt;
<br class="ltx_break">Current audio: &lt;current_audio&gt;
<br class="ltx_break">Transcribe the current audio. Output only the transcription.</span></span></span>
</span></span></span></foreignobject></g></g></svg>