<svg id="S1.F1.pic1" class="ltx_picture" height="36.81" overflow="visible" version="1.1" viewbox="0 0 782.23 36.81" width="782.23"><g style="--ltx-stroke-color:#000000;--ltx-fill-color:#000000;" fill="#000000" stroke="#000000" transform="translate(0,36.81) matrix(1 0 0 -1 0 0) translate(42.89,0) translate(0,18.4)"><g stroke-width="0.6pt"><path style="fill:none" d="M 38.32 17.99 L -38.32 17.99 C -40.61 17.99 -42.47 16.13 -42.47 13.84 L -42.47 -13.84 C -42.47 -16.13 -40.61 -17.99 -38.32 -17.99 L 38.32 -17.99 C 40.61 -17.99 42.47 -16.13 42.47 -13.84 L 42.47 13.84 C 42.47 16.13 40.61 17.99 38.32 17.99 Z M -42.47 -17.99" /></g><g style="--ltx-stroke-color:#000000;--ltx-fill-color:#000000;" fill="#000000" stroke="#000000" stroke-width="0.6pt" transform="matrix(1.0 0.0 0.0 1.0 -35.55 -4.32)"><foreignobject style="--ltx-fo-width:5.56em;--ltx-fo-height:0.68em;--ltx-fo-depth:0em;font-size:9.25pt;" height="8.65" overflow="visible" transform="matrix(1 0 0 -1 0 8.65)" width="71.11"><span class="ltx_foreignobject_container"><span class="ltx_foreignobject_content"><span id="S1.F1.pic1.1" class="ltx_text" style="font-size:90%;">Mouth video</span></span></span></foreignobject></g><g style="--ltx-fill-color:#EDEDFF;" fill="#EDEDFF" stroke-width="0.6pt"><path d="M 158.97 17.99 L 62.68 17.99 C 60.38 17.99 58.52 16.13 58.52 13.84 L 58.52 -13.84 C 58.52 -16.13 60.38 -17.99 62.68 -17.99 L 158.97 -17.99 C 161.27 -17.99 163.12 -16.13 163.12 -13.84 L 163.12 13.84 C 163.12 16.13 161.27 17.99 158.97 17.99 Z M 58.52 -17.99" /></g><g style="--ltx-stroke-color:#000000;--ltx-fill-color:#000000;" fill="#000000" stroke="#000000" stroke-width="0.6pt" transform="matrix(1.0 0.0 0.0 1.0 65.44 -4.32)"><foreignobject style="--ltx-fo-width:7.12em;--ltx-fo-height:0.68em;--ltx-fo-depth:0em;font-size:9.25pt;" height="8.65" overflow="visible" transform="matrix(1 0 0 -1 0 8.65)" width="91.12"><span class="ltx_foreignobject_container"><span class="ltx_foreignobject_content"><span id="S1.F1.pic1.2" class="ltx_text" style="font-size:90%;">Visual front-end</span></span></span></foreignobject></g><g style="--ltx-fill-color:#E8FFE8;" fill="#E8FFE8" stroke-width="0.6pt"><path d="M 295.62 17.99 L 183.33 17.99 C 181.03 17.99 179.18 16.13 179.18 13.84 L 179.18 -13.84 C 179.18 -16.13 181.03 -17.99 183.33 -17.99 L 295.62 -17.99 C 297.91 -17.99 299.77 -16.13 299.77 -13.84 L 299.77 13.84 C 299.77 16.13 297.91 17.99 295.62 17.99 Z M 179.18 -17.99" /></g><g style="--ltx-stroke-color:#000000;--ltx-fill-color:#000000;" fill="#000000" stroke="#000000" stroke-width="0.6pt" transform="matrix(1.0 0.0 0.0 1.0 186.09 -4.32)"><foreignobject style="--ltx-fo-width:8.31em;--ltx-fo-height:0.68em;--ltx-fo-depth:0em;font-size:9.25pt;" height="8.65" overflow="visible" transform="matrix(1 0 0 -1 0 8.65)" width="106.41"><span class="ltx_foreignobject_container"><span class="ltx_foreignobject_content"><span id="S1.F1.pic1.3" class="ltx_text" style="font-size:90%;">Conformer encoder</span></span></span></foreignobject></g><g style="--ltx-fill-color:#FFF0E0;" fill="#FFF0E0" stroke-width="0.6pt"><path d="M 445.89 17.99 L 318.59 17.99 C 317.06 17.99 315.82 16.75 315.82 15.22 L 315.82 4.15 C 315.82 2.62 317.06 1.38 318.59 1.38 L 445.89 1.38 C 447.42 1.38 448.66 2.62 448.66 4.15 L 448.66 15.22 C 448.66 16.75 447.42 17.99 445.89 17.99 Z M 315.82 1.38" /></g><g style="--ltx-stroke-color:#000000;--ltx-fill-color:#000000;" fill="#000000" stroke="#000000" stroke-width="0.6pt" transform="matrix(1.0 0.0 0.0 1.0 352.89 6.57)"><foreignobject style="--ltx-fo-width:4.64em;--ltx-fo-height:0.68em;--ltx-fo-depth:0.19em;font-size:9.25pt;" height="11.07" overflow="visible" transform="matrix(1 0 0 -1 0 8.65)" width="59.41"><span class="ltx_foreignobject_container"><span class="ltx_foreignobject_content"><span id="S1.F1.pic1.4" class="ltx_text" style="font-size:90%;">CTC layer</span></span></span></foreignobject></g><g style="--ltx-fill-color:#FBEDF2;" fill="#FBEDF2" stroke-width="0.6pt"><path d="M 445.89 -1.38 L 318.59 -1.38 C 317.06 -1.38 315.82 -2.62 315.82 -4.15 L 315.82 -15.22 C 315.82 -16.75 317.06 -17.99 318.59 -17.99 L 445.89 -17.99 C 447.42 -17.99 448.66 -16.75 448.66 -15.22 L 448.66 -4.15 C 448.66 -2.62 447.42 -1.38 445.89 -1.38 Z M 315.82 -17.99" /></g><g style="--ltx-stroke-color:#000000;--ltx-fill-color:#000000;" fill="#000000" stroke="#000000" stroke-width="0.6pt" transform="matrix(1.0 0.0 0.0 1.0 324.37 -14.01)"><foreignobject style="--ltx-fo-width:9.1em;--ltx-fo-height:0.68em;--ltx-fo-depth:0em;font-size:9.25pt;" height="8.65" overflow="visible" transform="matrix(1 0 0 -1 0 8.65)" width="116.46"><span class="ltx_foreignobject_container"><span class="ltx_foreignobject_content"><span id="S1.F1.pic1.5" class="ltx_text" style="font-size:90%;">Transformer decoder</span></span></span></foreignobject></g><g stroke-width="0.6pt"><path style="fill:none" d="M 645.59 17.99 L 468.86 17.99 C 466.57 17.99 464.71 16.13 464.71 13.84 L 464.71 -13.84 C 464.71 -16.13 466.57 -17.99 468.86 -17.99 L 645.59 -17.99 C 647.89 -17.99 649.74 -16.13 649.74 -13.84 L 649.74 13.84 C 649.74 16.13 647.89 17.99 645.59 17.99 Z M 464.71 -17.99" /></g><g style="--ltx-stroke-color:#000000;--ltx-fill-color:#000000;" fill="#000000" stroke="#000000" stroke-width="0.6pt" transform="matrix(1.0 0.0 0.0 1.0 471.63 -3.11)"><foreignobject style="--ltx-fo-width:13.4em;--ltx-fo-height:0.73em;--ltx-fo-depth:0.24em;font-size:9.25pt;" height="12.45" overflow="visible" transform="matrix(1 0 0 -1 0 9.34)" width="171.55"><span class="ltx_foreignobject_container"><span class="ltx_foreignobject_content"><span id="S1.F1.pic1.6" class="ltx_text" style="font-size:90%;">Joint CTC/attention decoding</span></span></span></foreignobject></g><g style="--ltx-stroke-color:#000000;--ltx-fill-color:#000000;" fill="#000000" stroke="#000000" stroke-width="0.4pt" transform="matrix(1.0 0.0 0.0 1.0 667.5 -4.25)"><foreignobject style="--ltx-fo-width:5.25em;--ltx-fo-height:0.66em;--ltx-fo-depth:0em;font-size:9.25pt;" height="8.51" overflow="visible" transform="matrix(1 0 0 -1 0 8.51)" width="67.23"><span class="ltx_foreignobject_container"><span class="ltx_foreignobject_content"><span id="S1.F1.pic1.7" class="ltx_text" style="font-size:90%;">Korean text</span></span></span></foreignobject></g><g stroke-width="0.7pt"><path style="fill:none" d="M 42.89 0 L 51.67 0" /><g stroke-dasharray="none" stroke-dashoffset="0.0pt" stroke-linejoin="miter" transform="matrix(1.0 0.0 0.0 1.0 51.67 0)"><path d="M 4.5 0 C 3.94 0.14 1.52 0.91 0 1.75 L 0 -1.75 C 1.52 -0.91 3.94 -0.14 4.5 0 Z" /></g></g><g stroke-width="0.7pt"><path style="fill:none" d="M 163.54 0 L 172.33 0" /><g stroke-dasharray="none" stroke-dashoffset="0.0pt" stroke-linejoin="miter" transform="matrix(1.0 0.0 0.0 1.0 172.33 0)"><path d="M 4.5 0 C 3.94 0.14 1.52 0.91 0 1.75 L 0 -1.75 C 1.52 -0.91 3.94 -0.14 4.5 0 Z" /></g></g><g stroke-width="0.7pt"><path style="fill:none" d="M 300.19 0 L 309.98 6.23" /><g stroke-dasharray="none" stroke-dashoffset="0.0pt" stroke-linejoin="miter" transform="matrix(0.84366 0.53688 -0.53688 0.84366 309.98 6.23)"><path d="M 4.5 0 C 3.94 0.14 1.52 0.91 0 1.75 L 0 -1.75 C 1.52 -0.91 3.94 -0.14 4.5 0 Z" /></g></g><g stroke-width="0.7pt"><path style="fill:none" d="M 300.19 0 L 309.98 -6.23" /><g stroke-dasharray="none" stroke-dashoffset="0.0pt" stroke-linejoin="miter" transform="matrix(0.84366 -0.53688 0.53688 0.84366 309.98 -6.23)"><path d="M 4.5 0 C 3.94 0.14 1.52 0.91 0 1.75 L 0 -1.75 C 1.52 -0.91 3.94 -0.14 4.5 0 Z" /></g></g><g stroke-width="0.7pt"><path style="fill:none" d="M 449.07 9.69 L 458.87 3.45" /><g stroke-dasharray="none" stroke-dashoffset="0.0pt" stroke-linejoin="miter" transform="matrix(0.84366 -0.53688 0.53688 0.84366 458.87 3.45)"><path d="M 4.5 0 C 3.94 0.14 1.52 0.91 0 1.75 L 0 -1.75 C 1.52 -0.91 3.94 -0.14 4.5 0 Z" /></g></g><g stroke-width="0.7pt"><path style="fill:none" d="M 449.07 -9.69 L 458.87 -3.45" /><g stroke-dasharray="none" stroke-dashoffset="0.0pt" stroke-linejoin="miter" transform="matrix(0.84366 0.53688 -0.53688 0.84366 458.87 -3.45)"><path d="M 4.5 0 C 3.94 0.14 1.52 0.91 0 1.75 L 0 -1.75 C 1.52 -0.91 3.94 -0.14 4.5 0 Z" /></g></g><g stroke-width="0.7pt"><path style="fill:none" d="M 650.16 0 L 656.18 0" /><g stroke-dasharray="none" stroke-dashoffset="0.0pt" stroke-linejoin="miter" transform="matrix(1.0 0.0 0.0 1.0 656.18 0)"><path d="M 4.5 0 C 3.94 0.14 1.52 0.91 0 1.75 L 0 -1.75 C 1.52 -0.91 3.94 -0.14 4.5 0 Z" /></g></g></g></svg>